<?xml version="1.0" encoding="utf-8"?>
<!-- Generator: Adobe Illustrator 26.5.0, SVG Export Plug-In . SVG Version: 6.00 Build 0)  -->
<svg version="1.1" id="Layer_1" xmlns="http://www.w3.org/2000/svg" xmlns:xlink="http://www.w3.org/1999/xlink" x="0px" y="0px"
	 viewBox="0 0 25.1 23.3" style="enable-background:new 0 0 25.1 23.3;" xml:space="preserve">
<style type="text/css">
	.st0{fill-rule:evenodd;clip-rule:evenodd;fill:#A18A6E;}
</style>
<g>
	<path class="st0" d="M23.8,16.7c-0.6-0.3-3.6-1.8-4.2-2s-1-0.3-1.4,0.3s-1.6,2-1.9,2.4c-0.4,0.4-0.7,0.5-1.3,0.2s-2.6-1-5-3.1
		c-1.8-1.6-3.1-3.6-3.4-4.3c-0.4-0.6,0-0.9,0.3-1.3c0.3-0.3,0.6-0.7,0.9-1.1s0.4-0.6,0.6-1S8.5,6,8.3,5.7C8.1,5.4,6.9,2.4,6.4,1.1
		C5.9-0.1,5.4,0.1,5,0C4.6,0,4.2,0,3.8,0S2.7,0.2,2.2,0.8C1.6,1.4,0,2.9,0,5.9s2.2,6,2.5,6.4s4.3,6.6,10.5,9.3
		c1.5,0.6,2.6,1,3.5,1.3c1.5,0.5,2.8,0.4,3.9,0.2c1.2-0.2,3.6-1.5,4.2-2.9c0.5-1.4,0.5-2.7,0.4-2.9C24.8,17.2,24.4,17,23.8,16.7z"/>
</g>
</svg>
