<?xml version="1.0" encoding="utf-8"?>
<!-- Generator: Adobe Illustrator 26.5.0, SVG Export Plug-In . SVG Version: 6.00 Build 0)  -->
<svg version="1.1" id="Laag_1" xmlns="http://www.w3.org/2000/svg" xmlns:xlink="http://www.w3.org/1999/xlink" x="0px" y="0px"
	 viewBox="0 0 241.9 279.3" style="enable-background:new 0 0 241.9 279.3;" xml:space="preserve">
<style type="text/css">
	.st0{fill:#FFFFFF;}
</style>
<g transform="matrix(3.07 0 0 3.07 250.5 227.5)">
	<g>
		<g transform="matrix(1 0 0 1 10.183752050000002 -16.457491400000006)">
			<polygon class="st0" points="-38.2,0.4 -13.1,-14.2 -13.2,-43.2 -38.4,-57.5 -63.4,-42.9 -38.3,-28.6 			"/>
		</g>
		<g transform="matrix(1 0 0 1 10.303741450000004 23.64883039999999)">
			<polygon class="st0" points="-13.2,-50.3 -13.2,-50.3 -38.3,-35.8 -63.4,-50.1 -63.3,-21.2 -38.2,-6.8 -13.1,-21.4 			"/>
		</g>
		<g transform="matrix(1 0 0 1 -18.236035150000006 0.40693379999999735)">
			<polygon class="st0" points="-13.2,-43.2 -38.3,-57.5 -63.4,-42.9 -63.2,-14 -38.1,0.4 -38.2,-28.6 			"/>
		</g>
	</g>
</g>
</svg>
