<?xml version="1.0" encoding="UTF-8"?>
<svg id="Layer_2" data-name="Layer 2" xmlns="http://www.w3.org/2000/svg" viewBox="0 0 853.64 378.1">
  <defs>
    <style>
      .cls-1 {
        opacity: .98;
      }

      .cls-2 {
        fill: #fff;
        stroke-width: 0px;
      }
    </style>
  </defs>
  <g id="Layer_1-2" data-name="Layer 1">
    <g>
      <g>
        <polygon class="cls-2" points="600.14 0 557.28 0 476.49 103.04 398.64 0 375.23 29 476.49 160.19 600.14 0"/>
        <polygon class="cls-2" points="362.16 88.71 476.49 237.82 660 0 620.13 0 476.49 189.2 361.53 45.16 306.97 108.75 221.46 0 183.32 0 268.12 109.84 306.97 160.19 362.16 88.71"/>
      </g>
      <g class="cls-1">
        <path class="cls-2" d="M50.51,318.66l-9.52,46.59h-7.05l-7.25-30.08c-.4-1.6-1.13-5.06-1.33-6.19-.2,1.13-.93,4.59-1.33,6.19l-7.59,30.08h-6.92L0,318.66h7.05l5.59,29.42c.27,1.4.87,4.59,1.06,6.12.27-1.53.93-4.66,1.26-6.06l7.45-29.48h5.99l7.59,30.15c.33,1.26.87,3.73,1.13,5.39.33-1.73.73-4.33.93-5.46l5.66-30.08h6.79Z"/>
        <path class="cls-2" d="M66.36,321.39c0,2.4-2,4.39-4.39,4.39s-4.46-2-4.46-4.39,2-4.46,4.46-4.46,4.39,2,4.39,4.46ZM65.36,365.25h-6.86v-34.94h6.86v34.94Z"/>
        <path class="cls-2" d="M82.26,363.65c0,8.78-2.2,12.44-11.85,14.44l-2.33-5.19c6.39-1.8,7.32-3.13,7.32-9.12v-33.48h6.86v33.34ZM83.26,321.39c0,2.4-2,4.39-4.39,4.39s-4.46-2-4.46-4.39,2-4.46,4.46-4.46,4.39,2,4.39,4.46Z"/>
        <path class="cls-2" d="M120.13,365.25h-6.86v-19.77c0-7.06-2.66-9.59-7.19-9.59s-7.19,3.26-7.19,8.92v20.43h-6.86v-34.94h6.86v3.33c1.73-2.53,5.19-4.06,8.78-4.06,8.12,0,12.45,5.32,12.45,15.64v20.03Z"/>
        <path class="cls-2" d="M155.91,365.25h-6.72v-3.46c-2.4,2.4-5.79,4.19-9.58,4.19-5.66,0-12.11-3.19-12.11-11.78,0-7.79,5.99-11.31,13.91-11.31,3.26,0,5.86.47,7.79,1.33v-2.6c0-3.79-2.33-5.92-6.59-5.92-3.59,0-6.39.67-9.12,2.2l-2.66-5.19c3.33-2.06,7.05-3.13,11.98-3.13,7.79,0,13.11,3.79,13.11,11.71v23.96ZM149.19,355.33v-4.99c-1.86-.93-4.26-1.53-7.99-1.53-4.39,0-7.19,2-7.19,5.19,0,3.46,2.2,5.79,6.72,5.79,3.66,0,6.86-2.26,8.45-4.46Z"/>
        <path class="cls-2" d="M193.49,365.25h-6.86v-19.77c0-7.06-2.66-9.59-7.19-9.59s-7.19,3.26-7.19,8.92v20.43h-6.86v-34.94h6.86v3.33c1.73-2.53,5.19-4.06,8.78-4.06,8.12,0,12.45,5.32,12.45,15.64v20.03Z"/>
        <path class="cls-2" d="M230.77,365.25h-6.79v-3.33c-2.53,2.33-5.46,4.06-9.12,4.06-7.52,0-13.44-5.46-13.44-18.77,0-11.98,6.52-17.64,13.78-17.64,3.53,0,6.86,1.86,8.78,3.99v-13.31l6.79-3.53v48.52ZM224.05,355.2v-14.71c-1.53-2.06-4.73-4.59-8.19-4.59-4.92,0-7.59,3.73-7.59,11.11,0,8.78,2.79,12.65,7.85,12.65,3.26,0,6.12-2.2,7.92-4.46Z"/>
        <path class="cls-2" d="M264.55,355.67c0,7.72-6.26,10.31-13.11,10.31-4.73,0-9.85-1.86-13.38-4.46l3.13-5.19c3.26,2.26,6.92,3.46,10.18,3.46,4.33,0,6.39-1.4,6.39-3.86,0-2.66-3.06-3.93-8.12-5.86-7.52-2.93-10.25-5.46-10.25-10.98,0-6.26,4.92-9.52,11.91-9.52,4.39,0,8.72,1.6,11.85,3.86l-2.99,5.26c-2.86-2-5.72-3-9.05-3s-4.79,1.33-4.79,3.2c0,1.73,1.2,2.99,6.46,5.06,7.79,2.99,11.78,5.12,11.78,11.71Z"/>
        <path class="cls-2" d="M334.1,365.25h-6.86v-24.62c0-2.79.07-6.86.13-8.19-.53,1.33-1.86,4.66-2.99,7.32l-11.31,26.22-11.18-26.22c-1.13-2.66-2.46-5.99-2.99-7.32.07,1.33.13,5.39.13,8.19v24.62h-6.59v-46.59h7.19l10.45,24.82c1.13,2.66,2.6,6.05,3.2,7.99.67-1.93,2-5.26,3.13-7.99l10.25-24.82h7.45v46.59Z"/>
        <path class="cls-2" d="M352.87,321.39c0,2.4-2,4.39-4.39,4.39s-4.46-2-4.46-4.39,2-4.46,4.46-4.46,4.39,2,4.39,4.46ZM351.87,365.25h-6.86v-34.94h6.86v34.94Z"/>
        <path class="cls-2" d="M368.67,365.25h-6.86v-44.92l6.86-3.59v48.52Z"/>
        <path class="cls-2" d="M386.48,321.39c0,2.4-2,4.39-4.39,4.39s-4.46-2-4.46-4.39,2-4.46,4.46-4.46,4.39,2,4.39,4.46ZM385.48,365.25h-6.86v-34.94h6.86v34.94Z"/>
        <path class="cls-2" d="M423.45,347.08c0,1.27-.13,2.4-.2,3.13h-23.09c.73,6.72,4.53,9.58,8.78,9.58,2.93,0,5.26-1.06,7.59-2.79l4.06,4.39c-3.06,2.93-6.72,4.59-12.05,4.59-8.19,0-15.11-6.59-15.11-18.17s6.26-18.23,15.31-18.23c9.92,0,14.71,8.05,14.71,17.5ZM416.53,344.55c-.33-4.79-2.59-8.78-8.25-8.78-4.59,0-7.39,3.2-7.99,8.78h16.24Z"/>
        <path class="cls-2" d="M459.07,365.25h-6.85v-3.33c-1.73,2.53-5.19,4.06-8.78,4.06-8.12,0-12.45-5.32-12.45-15.64v-20.03h6.86v19.77c0,7.06,2.66,9.59,7.19,9.59s7.19-3.26,7.19-8.92v-20.43h6.85v34.94Z"/>
        <path class="cls-2" d="M521.83,357.06c-3.33,5.72-8.98,8.92-16.04,8.92-12.05,0-19.7-9.92-19.7-24.02s7.65-24.02,19.7-24.02c7.59,0,12.64,3.06,15.84,8.72l-6.19,3.86c-2.4-3.79-4.86-5.59-9.65-5.59-8.12,0-12.51,6.59-12.51,17.04s4.39,17.04,12.51,17.04c4.86,0,7.85-2,10.25-5.79l5.79,3.86Z"/>
        <path class="cls-2" d="M559.12,347.61c0,11.58-6.79,18.37-15.77,18.37s-15.37-7.25-15.37-18.17,6.79-18.23,15.57-18.23,15.57,7.12,15.57,18.03ZM552.19,347.81c0-7.12-3.39-11.71-8.92-11.71-5.19,0-8.39,4.59-8.39,11.51,0,7.65,3.53,11.85,8.72,11.85s8.58-5.26,8.58-11.65Z"/>
        <path class="cls-2" d="M595.19,365.25h-6.86v-19.77c0-7.06-2.66-9.59-7.19-9.59s-7.19,3.26-7.19,8.92v20.43h-6.86v-34.94h6.86v3.33c1.73-2.53,5.19-4.06,8.78-4.06,8.12,0,12.45,5.32,12.45,15.64v20.03Z"/>
        <path class="cls-2" d="M628.56,355.67c0,7.72-6.26,10.31-13.11,10.31-4.73,0-9.85-1.86-13.38-4.46l3.13-5.19c3.26,2.26,6.92,3.46,10.18,3.46,4.33,0,6.39-1.4,6.39-3.86,0-2.66-3.06-3.93-8.12-5.86-7.52-2.93-10.25-5.46-10.25-10.98,0-6.26,4.92-9.52,11.91-9.52,4.39,0,8.72,1.6,11.85,3.86l-2.99,5.26c-2.86-2-5.72-3-9.05-3s-4.79,1.33-4.79,3.2c0,1.73,1.2,2.99,6.46,5.06,7.79,2.99,11.78,5.12,11.78,11.71Z"/>
        <path class="cls-2" d="M664.03,365.25h-6.85v-3.33c-1.73,2.53-5.19,4.06-8.78,4.06-8.12,0-12.45-5.32-12.45-15.64v-20.03h6.86v19.77c0,7.06,2.66,9.59,7.19,9.59s7.19-3.26,7.19-8.92v-20.43h6.85v34.94Z"/>
        <path class="cls-2" d="M680.71,365.25h-6.86v-44.92l6.86-3.59v48.52Z"/>
        <path class="cls-2" d="M707.8,358.33l-.8,6.06c-1.66.93-3.99,1.6-6.72,1.6-4.86,0-7.85-2.99-7.85-9.25v-20.17h-4.99v-6.26h4.99v-9.98l6.72-3.59v13.58h8.65v6.26h-8.65v18.97c0,3.26,1.07,4.19,3.59,4.19,1.8,0,3.79-.66,5.06-1.4Z"/>
        <path class="cls-2" d="M742.82,365.25h-6.72v-3.46c-2.4,2.4-5.79,4.19-9.58,4.19-5.66,0-12.11-3.19-12.11-11.78,0-7.79,5.99-11.31,13.91-11.31,3.26,0,5.86.47,7.79,1.33v-2.6c0-3.79-2.33-5.92-6.59-5.92-3.59,0-6.39.67-9.12,2.2l-2.66-5.19c3.33-2.06,7.05-3.13,11.98-3.13,7.79,0,13.11,3.79,13.11,11.71v23.96ZM736.1,355.33v-4.99c-1.86-.93-4.26-1.53-7.99-1.53-4.39,0-7.19,2-7.19,5.19,0,3.46,2.2,5.79,6.72,5.79,3.66,0,6.86-2.26,8.45-4.46Z"/>
        <path class="cls-2" d="M780.4,365.25h-6.86v-19.77c0-7.06-2.66-9.59-7.19-9.59s-7.19,3.26-7.19,8.92v20.43h-6.86v-34.94h6.86v3.33c1.73-2.53,5.19-4.06,8.78-4.06,8.12,0,12.45,5.32,12.45,15.64v20.03Z"/>
        <path class="cls-2" d="M815.83,335.5l-4.06,4.86c-2.86-2.93-5.39-4.26-8.52-4.26-4.99,0-8.19,4.46-8.19,11.58s2.93,11.78,8.39,11.78c3.26,0,5.19-1.46,7.92-4.32l4.39,4.32c-2.73,3.46-6.19,6.52-12.51,6.52-8.52,0-15.11-7.19-15.11-18.1,0-11.58,6.79-18.3,15.31-18.3,5.12,0,9.12,2.06,12.38,5.92Z"/>
        <path class="cls-2" d="M853.64,330.31l-17.57,47.25h-7.25l5.06-12.98-12.84-34.27h7.52l5.72,17.1c1,3.06,2.66,8.25,3.06,10.18.6-2.06,2.06-7.05,3.13-10.05l5.92-17.24h7.25Z"/>
      </g>
    </g>
  </g>
</svg>