<?xml version="1.0" encoding="utf-8"?>
<!-- Generator: Adobe Illustrator 26.5.0, SVG Export Plug-In . SVG Version: 6.00 Build 0)  -->
<svg version="1.1" id="Laag_1" xmlns="http://www.w3.org/2000/svg" xmlns:xlink="http://www.w3.org/1999/xlink" x="0px" y="0px"
	 viewBox="0 0 346.8 278.9" style="enable-background:new 0 0 346.8 278.9;" xml:space="preserve">
<style type="text/css">
	.st0{fill-rule:evenodd;clip-rule:evenodd;fill:#FFFFFF;}
	.st1{fill:#FFFFFF;}
</style>
<g>
	<g>
		<polygon class="st0" points="282.3,133.1 282,44.2 204.8,0 127.9,44.8 205.1,88.9 205.3,140.7 269.3,140.7 		"/>
		<polygon class="st0" points="128.6,234.8 205.9,278.9 282.7,234.1 282.6,203.4 128.5,203.4 		"/>
		<polygon class="st0" points="118.4,229.7 118.3,203.4 72.6,203.4 		"/>
		<polygon class="st0" points="194.9,95.9 117.7,51.8 40.8,96.6 41,140.7 118.1,140.7 		"/>
	</g>
	<g transform="matrix(1,0,0,1,250.0028489793894,259.49431471614764)">
		<path class="st1" d="M-228.9-95.9h-2.1l-3.8,10.1l-0.6,1.9l-0.5-1.9l-3.6-10.1h-2.4l1.5,4.1l-2.3,6.1l-0.6,1.9l-0.5-1.9l-3.6-10.1
			h-2.7l1.3,2.5l4.6,12.6l1.3,0.3l3-7.8l0.4-1.4l0.4,1.4l2.7,7.5l1.4,0.3L-228.9-95.9z"/>
		<path class="st1" d="M-224.3-95.9h-2.4l0.3,2.1v13h2.3l-0.2-1.7L-224.3-95.9L-224.3-95.9z"/>
		<path class="st1" d="M-217.2-95.9h-2.4l0.3,2.1v12.1c0,1.9-0.9,3.6-2.4,3.6c-0.4,0-0.7-0.1-1.1-0.3l-0.1,2
			c0.5,0.1,0.9,0.1,1.2,0.1c3.2,0,4.5-2.6,4.5-5.5V-95.9z"/>
		<path class="st1" d="M-200-95.9h-2.2l0.3,2.1v8.9l-1-1.5l-8.4-9.6h-1.4l0.3,2.1v13h2.1l-0.2-1.7V-92l1,1.5l8.6,9.7h1.1l-0.1-1.7
			v-13.4H-200z"/>
		<path class="st1" d="M-197.7-80.8h2l1.5-4h5.6l1.4,4h2.5l-1.1-2.5l-4.7-12.9l-1.4,0.3L-197.7-80.8z M-191.6-91.8l0.3-0.9l0.2,0.9
			l1.9,5.3h-4.4L-191.6-91.8z"/>
		<path class="st1" d="M-169.7-95.9h-2.2l0.3,2.1v8.9l-1-1.5L-181-96h-1.4l0.3,2.1v13h2.1l-0.2-1.7V-92l1,1.5l8.6,9.7h1.1l-0.1-1.7
			v-13.4H-169.7z"/>
		<path class="st1" d="M-159.3-95.9h-5.7l0.3,2.1v13h4.7c4.3,0,7-3.3,7-7.7C-153-93.6-156.2-95.9-159.3-95.9z M-159.8-94.3
			c2.6,0,4.5,2.7,4.5,5.9c0,3.2-1.9,5.9-4.5,5.9h-2.9v-11.8H-159.8z"/>
		<path class="st1" d="M-150.7-82.2c0,0,1.4,1.7,4.1,1.7c2.8,0,4.6-1.9,4.6-4.5c0-4.5-6.5-4.2-6.5-7.5c0-1.3,1.1-2.1,2.2-2.1
			c1.8,0,3.2,1,3.3,1.1l0.6-1.7c-0.7-0.4-2-1.1-3.8-1.1c-2.6,0-4.4,1.9-4.4,4.3c0,4.1,6.6,4.2,6.6,7.2c0,1.6-1.2,2.5-2.5,2.5
			c-2.3,0-3.9-2-3.9-2L-150.7-82.2z"/>
		<path class="st1" d="M-76.6-88"/>
		<path class="st1" d="M-124.3-82.5l4.7-7.3l0.8-1.6v10.6h2.3l-0.2-1.7v-13.4h-1.3l-6.2,9.8l-6.9-9.8h-1.5l0.3,2.1v13h2.1l-0.2-1.7
			v-8.8l0.8,1.5L-124.3-82.5z"/>
		<path class="st1" d="M-109.5-95.9h-2.4l0.3,2.1v13h2.3l-0.2-1.7C-109.5-82.5-109.5-95.9-109.5-95.9z"/>
		<path class="st1" d="M-104.4-80.8h7.5l0.5-1.7h-5.9v-13.4h-2.4l0.3,2.1V-80.8z"/>
		<path class="st1" d="M-91.6-95.9H-94l0.3,2.1v13h2.3l-0.2-1.7C-91.6-82.5-91.6-95.9-91.6-95.9z"/>
		<path class="st1" d="M-86.5-80.8h7.4l0.5-1.7h-5.8v-5.2h4.3l0.5-1.7h-4.8v-4.8h5.5v-1.7h-7.9l0.3,2.1V-80.8z"/>
		<path class="st1" d="M-65.3-86.6c0,2.4-1.6,4.4-3.9,4.4c-2.2,0-3.9-1.8-3.9-4.2v-9.5h-2.4l0.3,2.1v7.6c0,0.4,0.1,5.8,5.6,5.8
			c3.8,0,6.2-2.6,6.2-6.3v-9.1h-2.2l0.3,2.1V-86.6z"/>
		<path class="st1" d="M-76.6-88"/>
		<path class="st1" d="M-41.5-94.3c-1.3-1.2-2.9-1.9-4.8-1.9c-4,0-7.3,3.4-7.3,8.2c0,4.9,3.5,7.5,7,7.5c3.1,0,5.3-2,5.3-2l-0.5-1.7
			c0,0-2.4,1.9-4.5,1.9c-2.6,0-5.2-2.3-5.2-6c0-3.2,2-6.2,5-6.2c1.5,0,2.8,0.6,3.9,1.8L-41.5-94.3z"/>
		<path class="st1" d="M-32.5-96.2c-3.9,0-6.9,3.5-6.9,8c0,4.2,2.4,7.7,6.6,7.7c3.9,0,6.9-3.5,6.9-8C-25.9-92.9-28.1-96.2-32.5-96.2
			z M-37.2-88.4c0-3.4,1.8-6.2,4.5-6.2s4.5,2.8,4.5,6.2c0,3.4-1.8,6.2-4.5,6.2C-35.4-82.2-37.2-84.9-37.2-88.4z"/>
		<path class="st1" d="M-10-95.9h-2.2l0.3,2.1v8.9l-1-1.5l-8.4-9.6h-1.4l0.3,2.1v13h2.1l-0.2-1.7V-92l1,1.5l8.6,9.7h1.1l-0.1-1.7
			v-13.4H-10z"/>
		<path class="st1" d="M-6.4-82.2c0,0,1.4,1.7,4.1,1.7c2.8,0,4.6-1.9,4.6-4.5c0-4.5-6.5-4.2-6.5-7.5c0-1.3,1.1-2.1,2.2-2.1
			c1.8,0,3.2,1,3.3,1.1l0.6-1.7c-0.7-0.4-2-1.1-3.8-1.1c-2.6,0-4.4,1.9-4.4,4.3c0,4.1,6.6,4.2,6.6,7.2c0,1.6-1.1,2.5-2.5,2.5
			c-2.3,0-3.9-2-3.9-2L-6.4-82.2z"/>
		<path class="st1" d="M15.7-86.6c0,2.4-1.6,4.4-3.9,4.4C9.6-82.2,8-84,8-86.4v-9.5H5.6l0.3,2.1v7.6c0,0.4,0.1,5.8,5.6,5.8
			c3.8,0,6.2-2.6,6.2-6.3v-9.1h-2.2l0.3,2.1v7.1H15.7z"/>
		<path class="st1" d="M22.7-80.8h7.5l0.5-1.7h-5.9v-13.4h-2.4l0.3,2.1V-80.8z"/>
		<path class="st1" d="M29.6-94.2h4.8v13.4h2.3l-0.2-1.7v-11.7h5V-96H29.6V-94.2z"/>
		<path class="st1" d="M40.6-80.8h2l1.5-4h5.6l1.4,4h2.5l-1.1-2.5l-4.7-12.9l-1.4,0.3L40.6-80.8z M46.7-91.8l0.3-0.9l0.2,0.9
			l1.9,5.3h-4.4L46.7-91.8z"/>
		<path class="st1" d="M68.6-95.9h-2.2l0.3,2.1v8.9l-1-1.5L57.3-96h-1.4l0.3,2.1v13h2.1l-0.2-1.7V-92l1,1.5l8.6,9.7h1.1l-0.1-1.7
			L68.6-95.9L68.6-95.9z"/>
		<path class="st1" d="M84.1-94.3c-1.4-1.2-2.9-1.9-4.8-1.9c-4,0-7.3,3.4-7.3,8.2c0,4.9,3.4,7.5,7,7.5c3.1,0,5.3-2,5.3-2l-0.5-1.7
			c0,0-2.4,1.9-4.5,1.9c-2.6,0-5.2-2.3-5.2-6c0-3.2,2-6.2,5-6.2c1.5,0,2.8,0.6,3.9,1.8L84.1-94.3z"/>
		<path class="st1" d="M92.1-87.5l4.7-8.5h-2.1l-3,5.6l-0.4,1L91-90.3L88-96h-2.7l1.2,1.6l3.6,6.8v6.7h2.3l-0.2-1.7L92.1-87.5
			L92.1-87.5z"/>
	</g>
</g>
</svg>
