<?xml version="1.0" encoding="utf-8"?>
<!-- Generator: Adobe Illustrator 26.5.0, SVG Export Plug-In . SVG Version: 6.00 Build 0)  -->
<svg version="1.1" id="Laag_1" xmlns:serif="http://www.serif.com/"
	 xmlns="http://www.w3.org/2000/svg" xmlns:xlink="http://www.w3.org/1999/xlink" x="0px" y="0px" viewBox="0 0 54.7 47"
	 style="enable-background:new 0 0 54.7 47;" xml:space="preserve">
<style type="text/css">
	.st0{fill:#FFFFFF;}
</style>
<g>
	<path class="st0" d="M19.6,4.5c-3.1,3.1-3.1,8.1,0,11.1c0.4,0.4,1,0.4,1.4,0s0.4-1,0-1.4c-1.1-1.1-1.7-2.6-1.7-4.2s0.6-3,1.7-4.2
		c0.4-0.4,0.4-1,0-1.4c-0.2-0.2-0.5-0.3-0.7-0.3C20.1,4.1,19.8,4.3,19.6,4.5z"/>
	<circle class="st0" cx="27.7" cy="10" r="1"/>
	<path class="st0" d="M11.4,1.7c0.4-0.4,0.4-1,0-1.4C11.2,0.1,11,0,10.7,0c-0.2,0-0.5,0.1-0.7,0.3c-2.6,2.6-4,6-4,9.7s1.4,7.1,4,9.7
		c0.4,0.4,1,0.4,1.4,0c0.4-0.4,0.4-1,0-1.4C6.9,13.8,6.9,6.3,11.4,1.7z"/>
	<path class="st0" d="M27.8,37.6c-1.4,0-2.5,1.1-2.5,2.5s1.1,2.5,2.5,2.5s2.5-1.1,2.5-2.5C30.2,38.7,29.1,37.6,27.8,37.6z"/>
	<path class="st0" d="M16.3,17c0-0.3-0.1-0.5-0.3-0.7l0,0c-1.7-1.7-2.6-3.9-2.6-6.2s0.9-4.6,2.6-6.2c0.2-0.2,0.3-0.4,0.3-0.7
		S16.2,2.7,16,2.5c-0.1-0.3-0.4-0.4-0.7-0.4s-0.5,0.1-0.7,0.3c-4.2,4.2-4.2,11.1,0,15.3c0.4,0.4,1,0.4,1.4,0
		C16.2,17.5,16.3,17.2,16.3,17z"/>
	<path class="st0" d="M40.9,2.4c-0.2-0.2-0.5-0.3-0.7-0.3c-0.3,0-0.5,0.1-0.7,0.3c-0.4,0.4-0.4,1,0,1.4c1.7,1.7,2.6,3.9,2.6,6.2
		s-0.9,4.6-2.6,6.2c-0.4,0.4-0.4,1,0,1.4s1,0.4,1.4,0C45.1,13.5,45.1,6.6,40.9,2.4z"/>
	<path class="st0" d="M35.3,4.2c-0.3,0-0.5,0.1-0.7,0.3c-0.2,0.2-0.3,0.4-0.3,0.7s0.1,0.5,0.3,0.7c2.3,2.3,2.3,6,0,8.3
		c-0.2,0.2-0.3,0.4-0.3,0.7s0.1,0.5,0.3,0.7c0.4,0.4,1,0.4,1.4,0c3.1-3.1,3.1-8.1,0-11.1C35.8,4.3,35.5,4.2,35.3,4.2z"/>
	<path class="st0" d="M23.2,35h9c0.6,0,1-0.4,1-1v-8c0-0.6-0.4-1-1-1h-9c-0.6,0-1,0.4-1,1v8C22.2,34.6,22.7,35,23.2,35z M24.2,27h7
		v6h-7V27z"/>
	<path class="st0" d="M45.5,19.8c2.6-2.6,4-6.1,4-9.7s-1.4-7.1-4-9.7C45.3,0.1,45.1,0,44.8,0s-0.5,0.1-0.7,0.3c-0.4,0.4-0.4,1,0,1.4
		c4.6,4.6,4.6,12.1,0,16.6c-0.4,0.4-0.4,1,0,1.4C44.5,20.2,45.1,20.2,45.5,19.8z"/>
	<path class="st0" d="M20.6,47H35c1.5,0,2.8-1.3,2.8-2.8V25.3c0-0.7-0.2-1.3-0.6-1.8l-0.1-0.1c-2-2.3-4.8-3.8-7.8-4.2l-0.4-0.1v-3.8
		l0.4-0.1c2.4-0.6,4.1-2.8,4.1-5.3c0-3-2.5-5.5-5.5-5.5S22.2,7,22.2,10c0,2.5,1.7,4.7,4.1,5.3l0.4,0.1v3.8l-0.4,0.1
		c-3,0.4-5.8,1.8-7.8,4.2c-0.1,0.1-0.1,0.1-0.1,0.1l-0.1,0.1c-0.1,0.1-0.1,0.2-0.2,0.3c-0.2,0.4-0.3,0.9-0.3,1.4v18.9
		C17.8,45.8,19,47,20.6,47z M24.2,10c0-1.9,1.6-3.5,3.5-3.5s3.5,1.6,3.5,3.5s-1.6,3.5-3.5,3.5S24.2,12,24.2,10z M19.8,25.3
		c0-0.1,0-0.2,0.1-0.4l0.1-0.1c2-2.3,4.8-3.7,7.9-3.7c3,0,5.9,1.3,7.9,3.7l0.1,0.1C36,25,36,25.1,36,25.3v18.9
		c0,0.4-0.4,0.8-0.8,0.8H20.6c-0.4,0-0.8-0.4-0.8-0.8V25.3z"/>
</g>
</svg>
