<?xml version="1.0" encoding="utf-8"?>
<!-- Generator: Adobe Illustrator 26.5.0, SVG Export Plug-In . SVG Version: 6.00 Build 0)  -->
<svg version="1.1" id="Outline" xmlns="http://www.w3.org/2000/svg" xmlns:xlink="http://www.w3.org/1999/xlink" x="0px" y="0px"
	 viewBox="0 0 472 480" style="enable-background:new 0 0 472 480;" xml:space="preserve">
<style type="text/css">
	.st0{fill:#FFFFFF;}
</style>
<g>
	<path class="st0" d="M231.6,432h-47.2c-30.7-3.2-59.6-15.9-82.6-36.4l20.3-11.6H168v-16h-36.2l11.6-29l-14.8-6l-15,37.4l-23.5,13.4
		C83,376,76.8,367.3,71.6,358c-8-14.2-13-29.8-14.8-46H208v-16h-33.9l38.4-64H224v-16H85.6c16.8-23.5,38.8-42.8,64.2-56.6
		c21.1-11.5,34.3-33.7,34.3-57.7V48h48v53.7c0,15.5,5.5,30.6,15.5,42.4l-17.8,15.2l-36.2-7.2l-3.1,15.7l35.4,7.1l6.5,19.6l15.2-5.1
		l-6.3-18.9l18.1-15.5c2.2,1.6,4.5,3,6.9,4.4c11.6,6.3,22.5,13.8,32.6,22.4l10.4-12.2c-10.9-9.3-22.7-17.4-35.3-24.2
		c-16-8.7-25.9-25.5-25.9-43.7V46.6c12.5-4.4,19-18.1,14.6-30.6C259.2,6.4,250.2,0,240,0h-64c-13.3,0-24,10.8-24,24
		c0,10.2,6.4,19.2,16,22.6v55.1c0,18.2-9.9,35-25.9,43.7c-39.2,21.3-70.5,54.6-89.2,95c-18.7,40.2-16.9,86.8,4.8,125.5
		c26,46.2,72.9,76.8,125.6,82.1c0.3,0,0.5,0,0.8,0h48c0.3,0,0.5,0,0.8,0c20.6-2,40.6-8,58.9-17.6l-7.4-14.2
		C267.9,424.8,250,430.1,231.6,432z M176,16h64c4.4,0,8,3.6,8,8s-3.6,8-8,8h-64c-4.4,0-8-3.6-8-8S171.6,16,176,16z M78.1,296
		l33.9-56.5l33.9,56.5H78.1z M160,288.5L126.1,232h67.7L160,288.5z M75.3,232h22.6l-38.4,64H56c0.3-16.9,4.2-33.5,11.3-48.8
		C69.8,242,72.4,236.9,75.3,232z"/>
	<path class="st0" d="M432,288c0-57.4-46.6-104-104-104s-104,46.6-104,104c0,48.2,33.1,90.1,80,101.2V456c0,13.3,10.7,24,24,24
		s24-10.7,24-24v-66.8C398.9,378,431.9,336.2,432,288z M336,456c0,4.4-3.6,8-8,8s-8-3.6-8-8v-64.3c2.6,0.2,5.3,0.3,8,0.3
		s5.4-0.1,8-0.3V456z M328,376c-48.6,0-88-39.4-88-88s39.4-88,88-88s88,39.4,88,88C415.9,336.6,376.6,375.9,328,376z"/>
	<path class="st0" d="M328,216c-39.8,0-72,32.2-72,72s32.2,72,72,72s72-32.2,72-72C400,248.3,367.7,216,328,216z M328,344
		c-30.9,0-56-25.1-56-56s25.1-56,56-56s56,25.1,56,56S358.9,344,328,344z"/>
	<path class="st0" d="M195.6,390.7l24,16c1.9,1.3,4.2,1.7,6.4,1.1l32-8l-3.9-15.5l-28.6,7.1l-21.1-14L195.6,390.7z"/>
</g>
</svg>
