<?xml version="1.0" encoding="utf-8"?>
<!-- Generator: Adobe Illustrator 26.5.0, SVG Export Plug-In . SVG Version: 6.00 Build 0)  -->
<svg version="1.1" id="Layer_1" xmlns="http://www.w3.org/2000/svg" xmlns:xlink="http://www.w3.org/1999/xlink" x="0px" y="0px"
	 viewBox="0 0 74 57.2" style="enable-background:new 0 0 74 57.2;" xml:space="preserve">
<style type="text/css">
	.st0{fill:#FFFFFF;}
</style>
<g>
	<path class="st0" d="M37.1,0L0.1,57.2H74L37.1,0z M37.1,4.1L69.9,55H4.2L37.1,4.1z"/>
	<path class="st0" d="M37.1,8.3L8.4,52.7h57.4L37.1,8.3z M37.1,12.4l24.6,38H12.5L37.1,12.4z"/>
	<path class="st0" d="M37.1,20.1c-1.9,0-3.4,1.5-3.4,3.4v12.4c0,1.9,1.5,3.4,3.4,3.4s3.4-1.5,3.4-3.4V23.5
		C40.4,21.6,38.9,20.1,37.1,20.1z M38.2,35.8c0,0.6-0.5,1.1-1.1,1.1s-1.1-0.5-1.1-1.1V23.5c0-0.6,0.5-1.1,1.1-1.1s1.1,0.5,1.1,1.1
		V35.8z"/>
	<path class="st0" d="M37.1,41.5c-1.9,0-3.4,1.5-3.4,3.4s1.5,3.4,3.4,3.4s3.4-1.5,3.4-3.4C40.4,43,38.9,41.5,37.1,41.5z M37.1,46
		c-0.6,0-1.1-0.5-1.1-1.1s0.5-1.1,1.1-1.1s1.1,0.5,1.1,1.1S37.7,46,37.1,46z"/>
</g>
</svg>
