<?xml version="1.0" encoding="utf-8"?>
<!-- Generator: Adobe Illustrator 26.5.0, SVG Export Plug-In . SVG Version: 6.00 Build 0)  -->
<svg version="1.1" id="Layer_1" xmlns="http://www.w3.org/2000/svg" xmlns:xlink="http://www.w3.org/1999/xlink" x="0px" y="0px"
	 viewBox="0 0 328 206.5" style="enable-background:new 0 0 328 206.5;" xml:space="preserve">
<style type="text/css">
	.st0{fill:#FFFFFF;}
</style>
<g>
	<polygon class="st0" points="300.4,159.9 278.9,152.4 264.4,152.4 255.4,154.9 240.9,149.9 228.4,149.9 216.4,165.4 222.9,171.3 
		225.1,177.8 263.3,177.8 268.6,172 286.8,166.3 298.4,173.8 301.2,177.8 328,177.8 328,173.1 316.8,173.1 	"/>
	<path class="st0" d="M128.9,120l40-10.8l25-59.2L216,33.7l66.3,66.6l13.5,5.2l-0.5-6l15.1,1.6l0.5-5l-4.1-0.4l-53-69.8
		c0.7-3.4-0.1-7.5-6.9-15.2c-1.5-1.7-2.9-3.1-4.2-4.2l1.7-1.2l-2.8-3.8l-3,2.2c-1.8-0.8-3.3-1-4.7-0.4c-2.2,0.8-3.4,3.2-4,5.5
		l-2.3-2.3l-59.3,27.5l-15.3-4.8l-1.4,4.4l5.7,1.8l-10.9,47.4l-14.3,1l-6.6-38l-4.5-4.8H77.9l-2.6,2.8l-4.3,24.7H7.2l-6,13.1V120
		L128.9,120L128.9,120z M234.2,12.9l3-2.2l13.4,17.6c-0.4,1.2-0.8,2.4-1.1,3.9l-14-18.1L234.2,12.9z M287.1,96.2
		c-1.4,0-2.6-1.2-2.6-2.6s1.2-2.6,2.6-2.6s2.6,1.2,2.6,2.6S288.6,96.2,287.1,96.2z M294.9,94.4l-0.4-3.9l-42.9-55.4
		c0-1.7,0.3-3.1,0.7-4.4l48.9,64.3L294.9,94.4z M245.2,12.3c4.3,4.9,6,8,6.3,10.4l-11-14.5l0.4-0.3C242.1,9,243.5,10.4,245.2,12.3z
		 M235,5.6c0.3-0.1,0.8-0.2,1.4-0.1L233,7.9C233.5,6.8,234.1,5.9,235,5.6z M223.1,17.8c2.4,0,4.3,1.9,4.3,4.3s-1.9,4.3-4.3,4.3
		s-4.3-1.9-4.3-4.3S220.8,17.8,223.1,17.8z M109.2,77.3C109.2,77.2,109.2,77.2,109.2,77.3c2.1,1.2,5.1,2.4,8.7,2.4
		c0.3,0,0.6,0,0.9,0l-1.1,4.8l-9.4-2.3C108.6,80.4,108.9,78.7,109.2,77.3z M184.9,44.9c0,2.4-1.9,4.3-4.3,4.3s-4.3-1.9-4.3-4.3
		c0-2.4,1.9-4.3,4.3-4.3C183,40.6,184.9,42.5,184.9,44.9z M162.7,36.9l4.4,1.4L156.9,82l-4.6,0.3L162.7,36.9z M126.3,86.5l-7.3-1.8
		l1.2-5.3c0,0,0.1,0,0.1,0c0.9-0.1,1.6-1,1.4-1.9c-0.1-0.5-0.4-1-0.8-1.2l0-0.2c0.7-0.1,1.2-0.8,1.2-1.5c0-0.9-0.7-1.5-1.5-1.5
		s-1.5,0.7-1.5,1.5c0,0.5,0.2,0.9,0.6,1.2l-0.1,0.3c-5.8,0.7-10.1-2.7-11.2-3.7c-0.4-0.5-0.9-0.9-1.6-1c-2.1-0.5-5.1,0.7-6.3,4.3
		c-0.5,1.6-0.8,2.9-1.1,4.3L97,79.5v-27h23.4L126.3,86.5z M78.7,52.5h13.2v25.7L75,74.1L78.7,52.5z M11.3,78.7h34.6v2.6H11.3V78.7z
		 M11.3,85.7h34.6v2.6H11.3V85.7z M11.3,92.7h34.6v2.6H11.3V92.7z M11.3,99.7h34.6v2.6H11.3V99.7z"/>
	<rect x="16.6" y="59.1" class="st0" width="36.2" height="6"/>
	<rect x="65.1" y="123.6" class="st0" width="53.1" height="7.9"/>
	
		<rect x="161.3" y="13.6" transform="matrix(0.9109 -0.4127 0.4127 0.9109 10.1392 79.5604)" class="st0" width="55.8" height="5.4"/>
	<polygon class="st0" points="278.9,115.6 249.2,141.2 292.7,147.3 303.3,135.8 302.9,113.8 281.4,104.4 	"/>
	<path class="st0" d="M167.2,155.9c0.4-1.2,0.7-2.4,0.8-3.6l-2.8-0.3c0,0,0,0,0,0c0-0.4,0.1-0.9,0.1-1.3l0,0c0-0.7-0.1-1.4-0.2-2.1
		c0,0.1,0.1,0.2,0.1,0.3l2.8-0.4c-0.2-1.2-0.5-2.4-1-3.6l-2.6,1.1c0.1,0.1,0.1,0.3,0.1,0.4c-0.5-1.3-1.1-2.5-1.9-3.5
		c0.1,0.1,0.2,0.3,0.3,0.4l2.3-1.6c-0.7-1-1.6-1.9-2.5-2.8l-1.9,2.1c0.1,0.1,0.3,0.3,0.4,0.4c-1-0.9-2.1-1.7-3.4-2.3
		c0.1,0.1,0.3,0.1,0.5,0.2l1.3-2.5c-1.1-0.6-2.3-1-3.5-1.3l-0.7,2.8c0.1,0,0.2,0.1,0.4,0.1c-1.1-0.3-2.2-0.5-3.4-0.5h0v-2.8H149v2.8
		h-3.4v-2.8h-3.4v2.8h-3.4v-2.8h-3.4v2.8h-3.4v-2.8h-3.4v2.8h-3.4v-2.8h-3.4v2.8h-3.4v-2.8h-3.4v2.8h-3.4v-2.8h-3.4v2.8h-3.4v-2.8
		h-3.4v2.8h-3.4v-2.8h-3.4v2.8h-3.4v-2.8H88v2.8h-3.4v-2.8h-3.4v2.8h-3.4v-2.8h-3.4v2.8H71v-2.8h-3.4v2.8h-3.4v-2.8h-3.4v2.8h-3.4
		v-2.8h-3.4v2.8h-3.4v-2.8h-3.4v2.8h-3.4v-2.8h-3.4v2.8h-3.4v-2.8h-3.4v2.8h-2.9c-0.3,0-0.5,0-0.8,0c0.1,0,0.2,0,0.3,0l-0.1-2.8
		c-1.2,0-2.5,0.2-3.7,0.6l0.8,2.7c0.1,0,0.3-0.1,0.4-0.1c-1.3,0.3-2.6,0.9-3.7,1.6c0.2-0.1,0.3-0.2,0.5-0.3l-1.4-2.5
		c-1.1,0.6-2.1,1.4-3,2.2l1.9,2.1c0.1-0.1,0.3-0.2,0.4-0.3c-1,0.9-1.9,2-2.6,3.1c0.1-0.2,0.2-0.3,0.3-0.5l-2.4-1.6
		c-0.7,1-1.2,2.2-1.7,3.3l2.7,1c0-0.1,0.1-0.2,0.1-0.4c-0.6,1.4-0.9,3-0.9,4.6l0,0c0,0.4,0,0.8,0.1,1.2c0-0.4-0.1-0.8-0.1-1.2
		c0-0.4,0-0.9,0.1-1.3l-2.8-0.3c-0.1,0.5-0.1,1.1-0.1,1.6c0,0.7,0,1.4,0.1,2.1l2.8-0.4c0-0.1,0-0.2,0-0.3c0.1,1.2,0.4,2.3,0.9,3.4
		c0-0.1-0.1-0.1-0.1-0.2l-2.6,1c0.5,1.2,1.1,2.3,1.8,3.3l2.3-1.6c0-0.1-0.1-0.1-0.1-0.2c0.7,1,1.5,1.8,2.4,2.6
		c-0.1-0.1-0.1-0.1-0.2-0.2l-1.9,2.1c0.9,0.8,2,1.5,3.1,2.1l1.3-2.5c-0.1,0-0.1-0.1-0.2-0.1c1,0.5,2.1,0.9,3.2,1.2
		c-0.1,0-0.1,0-0.2,0l-0.7,2.8c1.2,0.3,2.4,0.4,3.7,0.4h0.1v-2.8h3.4v2.8h3.4v-2.8h3.4v2.8h3.4v-2.8h3.4v2.8h3.4v-2.8h3.4v2.8H58
		v-2.8h3.4v2.8h3.4v-2.8h3.4v2.8h3.4v-2.8H75v2.8h3.4v-2.8h3.4v2.8h3.4v-2.8h3.4v2.8h3.4v-2.8h3.4v2.8h3.4v-2.8h3.4v2.8h3.4v-2.8
		h3.4v2.8h3.4v-2.8h3.4v2.8h3.4v-2.8h3.4v2.8h3.4v-2.8h3.4v2.8h3.4v-2.8h3.4v2.8h3.4v-2.8h3.4v2.8h3.4v-2.8h3.4v2.8h2.9
		c0.2,0,0.4,0,0.6,0l-0.1-2.8c-0.2,0-0.3,0-0.5,0c1.3,0,2.5-0.2,3.6-0.5c-0.1,0-0.1,0-0.2,0.1l0.8,2.7c1.2-0.3,2.4-0.8,3.4-1.4
		l-1.4-2.5c-0.1,0-0.1,0-0.2,0.1c1-0.6,2-1.3,2.8-2.1c-0.1,0.1-0.1,0.1-0.2,0.2l1.9,2.1c0.9-0.9,1.7-1.8,2.4-2.8l-2.4-1.6
		c0,0-0.1,0.1-0.1,0.1c0.6-1,1.2-2,1.5-3.1c0,0.1,0,0.2-0.1,0.2L167.2,155.9z M19.5,144.8c-0.1,0.2-0.2,0.4-0.3,0.6
		C19.3,145.2,19.4,145,19.5,144.8z M19.4,156.3c0.2,0.4,0.4,0.7,0.6,1C19.7,157,19.6,156.7,19.4,156.3z M164.8,147.8
		c0-0.2-0.1-0.4-0.2-0.6C164.8,147.4,164.8,147.6,164.8,147.8z M162.1,142.5c-0.2-0.2-0.3-0.4-0.5-0.6
		C161.8,142.1,162,142.3,162.1,142.5z M157.2,138.9c-0.2-0.1-0.4-0.2-0.6-0.2C156.8,138.8,157,138.8,157.2,138.9z M29.2,138.1
		c-0.2,0-0.4,0.1-0.6,0.1C28.8,138.2,29,138.1,29.2,138.1z M23.6,140.3c-0.2,0.1-0.4,0.3-0.6,0.5C23.2,140.6,23.4,140.4,23.6,140.3z
		 M23.1,160.9c0.4,0.3,0.7,0.5,1.1,0.7C23.8,161.4,23.5,161.2,23.1,160.9z M29,163.4c0.2,0,0.3,0.1,0.5,0.1
		C29.3,163.4,29.1,163.4,29,163.4z M156.9,162.7c0.3-0.1,0.5-0.2,0.8-0.3C157.4,162.5,157.2,162.6,156.9,162.7z M152.6,157.7
		c-3.4,0-6.2-2.4-6.8-5.7H37.5c-0.6,3.2-3.4,5.7-6.8,5.7c-3.8,0-7-3.1-7-7s3.1-7,7-7c3.4,0,6.2,2.4,6.8,5.7h108.2
		c0.6-3.2,3.4-5.7,6.8-5.7c3.8,0,7,3.1,7,7S156.4,157.7,152.6,157.7z M161.8,159.4c0.3-0.4,0.6-0.7,0.9-1.1
		C162.4,158.7,162.1,159.1,161.8,159.4z M164.9,153.4c0,0.2-0.1,0.3-0.1,0.5C164.8,153.8,164.9,153.6,164.9,153.4z"/>
	<circle class="st0" cx="30.7" cy="150.7" r="2.6"/>
	<circle class="st0" cx="152.6" cy="150.7" r="2.6"/>
	<polygon class="st0" points="311.1,194.6 311.1,194.6 311.1,194.6 	"/>
	<polygon class="st0" points="296.3,176 286.4,169.5 270.2,174.6 261.1,184.7 267.9,189.1 276.9,195.6 282.8,191.3 290.8,191.3 
		304.3,195.1 309.4,194.7 	"/>
	<polygon class="st0" points="279.4,197.4 280.2,198 276.9,202.5 282.1,203 296,203.2 303.4,198 290.4,194.3 283.8,194.3 	"/>
	<polygon class="st0" points="266.2,191.6 259.3,187.1 248.3,190.5 241.4,198.1 239.2,201.4 245.3,206.5 259.6,206.5 271.2,205.2 
		276,198.6 	"/>
	<polygon class="st0" points="129.1,185.9 125.9,186.8 122.2,191.6 135.4,192.2 141.4,188.4 136.8,184.2 	"/>
	<polygon class="st0" points="158.5,193.3 156.3,196.6 162,197.9 167,196.2 167.5,192.4 164,191.1 	"/>
	<polygon class="st0" points="313.3,204.8 313.8,201 310.3,199.7 304.8,201.9 302.6,205.2 308.3,206.5 	"/>
	<polygon class="st0" points="220.3,173 215.2,168.4 200.9,171.1 187.6,171.1 176.7,179.5 159.6,180.8 153.2,184.3 179.9,185 
		193.2,183.9 199.8,179.7 213.9,179.1 217.4,181.4 223,180.9 	"/>
	<polygon class="st0" points="224.5,190 213,182.1 200.7,182.7 190.1,189.2 183.5,191.3 181.3,193.5 198.4,193.5 228.8,192.8 
		229.7,192.3 	"/>
	<ellipse class="st0" cx="110.5" cy="65.4" rx="5.5" ry="5.5"/>
</g>
</svg>
