<?xml version="1.0" encoding="utf-8"?>
<!-- Generator: Adobe Illustrator 26.5.0, SVG Export Plug-In . SVG Version: 6.00 Build 0)  -->
<svg version="1.1" id="Layer_2" xmlns="http://www.w3.org/2000/svg" xmlns:xlink="http://www.w3.org/1999/xlink" x="0px" y="0px"
	 viewBox="0 0 480.5 422.1" style="enable-background:new 0 0 480.5 422.1;" xml:space="preserve">
<style type="text/css">
	.st0{fill:#FFFFFF;}
</style>
<g>
	<path class="st0" d="M473,128.9H9.6c-4.1,0-7.5,3.4-7.5,7.5s3.4,7.5,7.5,7.5H473c4.1,0,7.5-3.4,7.5-7.5S477.2,128.9,473,128.9z"/>
	<path class="st0" d="M480.5,244c0-4.1-3.4-7.5-7.5-7.5H9.6c-4.1,0-7.5,3.4-7.5,7.5s3.4,7.5,7.5,7.5H473
		C477.2,251.5,480.5,248.1,480.5,244z"/>
	<path class="st0" d="M473,407.1c-21.5,0-32.1-4.8-43.2-10c-12.1-5.6-24.7-11.3-49.5-11.3c-24.8,0-37.3,5.8-49.5,11.3
		c-11.2,5.1-21.7,9.9-43.2,9.9c-21.5,0-32.1-4.8-43.2-10c-12.1-5.6-24.7-11.3-49.5-11.3s-37.3,5.8-49.5,11.3
		c-11.1,5.1-21.7,10-43.2,10c-21.5,0-32.1-4.8-43.2-10c-12.1-5.6-24.7-11.3-49.5-11.3c-4.1,0-7.5,3.4-7.5,7.5s3.4,7.5,7.5,7.5
		c21.5,0,32.1,4.8,43.2,10c12.1,5.6,24.7,11.3,49.5,11.3c24.8,0,37.3-5.8,49.5-11.3c11.1-5.1,21.7-10,43.2-10
		c21.5,0,32.1,4.8,43.2,10c12.1,5.6,24.7,11.3,49.5,11.3s37.3-5.8,49.5-11.3c11.2-5.1,21.7-10,43.2-10c21.5,0,32.1,4.8,43.2,10
		c12.1,5.6,24.7,11.3,49.5,11.3c4.1,0,7.5-3.4,7.5-7.5S477.2,407.1,473,407.1z"/>
	<path class="st0" d="M473,345.3c-21.5,0-32.1-4.8-43.2-10c-12.1-5.6-24.7-11.3-49.5-11.3c-24.8,0-37.3,5.8-49.5,11.3
		c-11.2,5.1-21.7,10-43.2,10c-21.5,0-32.1-4.8-43.2-10c-12.1-5.6-24.7-11.3-49.5-11.3s-37.3,5.8-49.5,11.3
		c-11.1,5.1-21.7,10-43.2,10c-21.5,0-32.1-4.8-43.2-10c-12.1-5.6-24.7-11.3-49.5-11.3c-4.1,0-7.5,3.4-7.5,7.5s3.4,7.5,7.5,7.5
		c21.5,0,32.1,4.8,43.2,10c12.1,5.6,24.7,11.3,49.5,11.3c24.8,0,37.3-5.8,49.5-11.3c11.1-5.1,21.7-10,43.2-10
		c21.5,0,32.1,4.8,43.2,10c12.1,5.6,24.7,11.3,49.5,11.3s37.3-5.8,49.5-11.3c11.2-5.1,21.7-10,43.2-10c21.5,0,32.1,4.8,43.2,10
		c12.1,5.6,24.7,11.3,49.5,11.3c4.1,0,7.5-3.4,7.5-7.5S477.2,345.3,473,345.3z"/>
	<circle class="st0" cx="18" cy="187.6" r="8.4"/>
	<circle class="st0" cx="51.7" cy="169" r="8.4"/>
	<circle class="st0" cx="51.7" cy="210" r="8.4"/>
	<circle class="st0" cx="86" cy="187.6" r="8.4"/>
	<circle class="st0" cx="119.7" cy="169" r="8.4"/>
	<circle class="st0" cx="119.7" cy="210" r="8.4"/>
	<circle class="st0" cx="153.9" cy="187.6" r="8.4"/>
	<circle class="st0" cx="187.6" cy="169" r="8.4"/>
	<circle class="st0" cx="187.6" cy="210" r="8.4"/>
	<circle class="st0" cx="225.4" cy="187.6" r="8.4"/>
	<circle class="st0" cx="259.1" cy="169" r="8.4"/>
	<circle class="st0" cx="259.1" cy="210" r="8.4"/>
	<circle class="st0" cx="293.3" cy="187.6" r="8.4"/>
	<circle class="st0" cx="327" cy="169" r="8.4"/>
	<circle class="st0" cx="327" cy="210" r="8.4"/>
	<circle class="st0" cx="361.3" cy="187.6" r="8.4"/>
	<circle class="st0" cx="395" cy="169" r="8.4"/>
	<circle class="st0" cx="395" cy="210" r="8.4"/>
	<circle class="st0" cx="430.9" cy="187.6" r="8.4"/>
	<circle class="st0" cx="464.6" cy="169" r="8.4"/>
	<circle class="st0" cx="464.6" cy="210" r="8.4"/>
	<circle class="st0" cx="34.9" cy="285.7" r="8.4"/>
	<circle class="st0" cx="102.8" cy="285.7" r="8.4"/>
	<circle class="st0" cx="170.8" cy="285.7" r="8.4"/>
	<circle class="st0" cx="242.2" cy="285.7" r="8.4"/>
	<circle class="st0" cx="310.2" cy="285.7" r="8.4"/>
	<circle class="st0" cx="378.1" cy="285.7" r="8.4"/>
	<circle class="st0" cx="447.8" cy="285.7" r="8.4"/>
	<path class="st0" d="M18,84.3c1.2,0.7,2.5,1,3.7,1c2.6,0,5.1-1.4,6.5-3.8c2.1-3.6,0.8-8.2-2.8-10.2c-7-4-9.4-11.3-10-18.1
		c10.6,7.6,27,12.7,49.1,8.4c28.8-5.6,33.1,11.8,33.6,13.9c0.7,4,4.6,6.7,8.7,6c4.1-0.7,6.8-4.6,6.1-8.7
		c-0.2-1.3-2.5-12.8-13.9-20.6c-9.5-6.5-22-8.3-37.3-5.3c-27.6,5.4-42.5-7.8-45-14.6c-1.1-3-4.1-5-7.3-4.9c-3.2,0.1-6,2.3-6.9,5.4
		C2,34.4-7.7,69.5,18,84.3z"/>
	<path class="st0" d="M268.8,55.7c0.8,4.1,4.7,6.7,8.8,5.9c12.7-2.5,22.1-0.9,28.1,4.7c4.3,4,5.4,8.9,5.4,9.2
		c0.7,3.6,3.8,6.1,7.4,6.1c0.4,0,0.9,0,1.3-0.1c3.2-0.6,5.6-3.1,6.1-6.1l2.2,0.6c0,0,0,0.1-0.1,0.4c0-0.1,4.7-11.7,35.9-14.6
		c18.5-1.8,38.5-9.4,50.7-14.8c-0.2,1.1-0.3,2.2-0.6,3.4c-2,10-6.5,17.1-13.2,21c-3.6,2.1-4.8,6.6-2.8,10.2c1.4,2.4,3.9,3.8,6.5,3.8
		c1.3,0,2.6-0.3,3.7-1C433.1,70,430.1,35.7,430,34.2c-0.2-2.5-1.7-4.7-3.9-5.9c-2.2-1.2-4.8-1.2-7.1,0c-0.3,0.2-30.9,16.1-56.5,18.5
		c-22.6,2.1-34.8,8.6-41.4,14.6c-2.1-3.1-4.9-6.3-9-9.1c-9.5-6.5-22-8.3-37.3-5.3C270.7,47.7,268,51.6,268.8,55.7z"/>
	<path class="st0" d="M476.8,44.6c-1.3-0.5-12.7-4.9-25.8,0.7c-10.6,4.5-18.9,14-24.6,28.3c-1.5,3.8,0.3,8.2,4.2,9.7
		c0.9,0.4,1.9,0.5,2.8,0.5c3,0,5.8-1.8,7-4.7c10.9-27.3,28.9-21.5,30.9-20.7c3.8,1.5,8.2-0.3,9.7-4.1
		C482.5,50.5,480.7,46.1,476.8,44.6z"/>
	<path class="st0" d="M124.4,70.8c3.6,2,8.2,0.7,10.2-2.9c0.8-1.4,19.2-33.3,69.8-33.8c26.5-0.2,44-3.8,55.3-7.7
		c-6.5,15.3-19.1,37.3-41.5,50.4c-18.8,11-41.5,14.1-67.6,9.1c17.5-9.7,42.8-21.1,72.9-26.8c4.1-0.8,6.7-4.7,6-8.8
		c-0.8-4.1-4.7-6.7-8.8-6c-55.2,10.5-94.2,38.1-103.7,45.3H9.6c-4.1,0-7.5,3.4-7.5,7.5s3.4,7.5,7.5,7.5H473c4.1,0,7.5-3.4,7.5-7.5
		s-3.4-7.5-7.5-7.5H226c42.5-25,53.8-75,54.2-77.2c0.8-3.5-0.9-7.2-4.1-8.7c-3.2-1.4-6.8-0.6-8.9,2.2c-0.6,0.6-3.9,3.4-12.3,6.3
		c-8.6,3-24.4,6.6-50.7,6.8c-59.7,0.6-81.9,39.9-82.8,41.6C119.5,64.2,120.8,68.8,124.4,70.8z"/>
</g>
</svg>
