<?xml version="1.0" encoding="utf-8"?>
<!-- Generator: Adobe Illustrator 26.5.0, SVG Export Plug-In . SVG Version: 6.00 Build 0)  -->
<svg version="1.1" id="icons" xmlns="http://www.w3.org/2000/svg" xmlns:xlink="http://www.w3.org/1999/xlink" x="0px" y="0px"
	 viewBox="0 0 120.5 121.6" style="enable-background:new 0 0 120.5 121.6;" xml:space="preserve">
<style type="text/css">
	.st0{fill:#FFFFFF;}
</style>
<g>
	<path class="st0" d="M51.1,118.4l16.2-15.1l-1.6-6.4l5.7-2.9l-2.7-12.1l3.2,1.2l1.1-2.8l-16.6-6.5L56.5,74v-5.9l1.7-1.4
		c3.5-2.7,5.7-6.7,6.2-11.1l2-1.5c1.3-1,2.1-2.4,2.4-3.9l0.6-2.8c0.1-0.3,0.1-0.7,0.1-1c0.1-1.5-0.5-2.9-1.5-3.9
		c-0.9-1-2.1-1.6-3.5-1.7v-0.1h-0.4h-2.6v3h0l0,10.6c-0.1,3.9-2,7.6-5.1,10l-4,3.2c-4,3.2-9.7,3.2-13.6,0l-4-3.2
		c-3.3-2.6-5.3-6.5-5.3-10.1V40.7h-3v0l-0.6,0c-1.5,0.1-2.8,0.7-3.8,1.8c-1,1.1-1.5,2.5-1.5,4c0,0.3,0.1,0.7,0.1,0.9l0.6,2.8
		c0.3,1.6,1.1,3,2.4,3.9l2.9,2.1l0,0c0.6,3.8,2.9,7.7,6.2,10.4l0.6,0.5v6.8l-8.9,4C14.5,82.7,6.8,91.9,3.3,103.4l-2.9,10.1l1.3,0.5
		c12.9,4.9,28.1,7.6,43.7,7.6c0.1,0,0.3,0,0.4,0c10.3,0,20.7-1.2,30.7-3.7l-0.7-2.9C67.8,116.9,59.5,118.1,51.1,118.4z M65.8,44.5
		c0.5,0.5,0.7,1.1,0.7,1.8c0,0.2,0,0.3-0.1,0.5l-0.6,2.9c-0.2,0.8-0.6,1.6-1.2,2.1l-0.1,0.1v-8.1C65,43.9,65.5,44.2,65.8,44.5z
		 M24.2,49.7l-0.6-2.9c0-0.1-0.1-0.3-0.1-0.5c0-0.7,0.2-1.3,0.7-1.8c0.5-0.5,1.1-0.8,1.7-0.8h0.5v8.8l-1-0.7
		C24.8,51.3,24.4,50.6,24.2,49.7z M49.5,83.8l-1.4,3.5l-2.7,0.8l-2.7-0.8l-1.5-3.8l3.9-3.1L49.5,83.8z M45.5,91.2l1.1-0.3l4.3,12
		l-5.7,8.9l-5.7-8.6l4.4-12.4L45.5,91.2z M52.9,99.6L49.4,90l0.9-0.3l1.5-3.9l3.2,2.5l1.9-2.3l-7.6-6.1c2.6-0.5,5-1.4,7.3-2.8
		l8.4,3.3L52.9,99.6z M36.9,69.9c2.5,2,5.6,3,8.7,3c2.8,0,5.6-0.8,7.9-2.5v5c-2.5,1.2-5.2,1.8-8.1,1.8c-3.1,0-6.2-0.7-8.9-2.2v-5.3
		L36.9,69.9z M34.2,77.1c2.1,1.3,4.4,2.2,6.8,2.7L33.2,86l1.9,2.3l3.7-3l1.7,4.3l0.5,0.2L37.4,100L25,81.2c0.3-0.1,0.6-0.3,0.8-0.4
		L34.2,77.1z M6.1,104.3c2.6-8.6,7.8-15.8,14.6-20.5L18.5,94l5.7,2.9l-1.6,6.4l16.1,15.1c-6.6-0.3-13.1-1.1-19.2-2.4v-6.2h-3v5.6
		c-4.3-1-8.5-2.2-12.5-3.7L6.1,104.3z M45.8,118.6c-0.8,0-1.7,0-2.5,0l-17.4-16.2l1.7-7.1l-5.8-2.9l1.7-7.8l21.6,32.7l21.1-33.1
		l1.8,8.2l-5.8,2.9l1.7,7.1l-17.4,16.2C46.4,118.5,46.1,118.6,45.8,118.6z"/>
	<path class="st0" d="M27.5,22.4c0-0.9,0.1-1.8,0.3-2.6h3.8v-3h-2.9c1.7-4.3,5.3-7.6,9.9-8.9v11.9h3V4.4c0-0.9,0.8-1.7,1.7-1.7h3.6
		c0.9,0,1.7,0.8,1.7,1.7v15.3h3V7.6c5,1.1,9,4.6,10.9,9.1h-2.9v3h3.8c0.2,0.8,0.2,1.7,0.2,2.6v2.4h3v-2.4c-0.1-8.9-6.3-16.2-15-17.8
		V4.4c0-2.6-2.1-4.7-4.7-4.7h-3.6c-2.6,0-4.7,2.1-4.7,4.7v0.3c-8.1,1.9-13.9,9.1-14,17.6v2.4h3V22.4z"/>
	<path class="st0" d="M45.6,39.1c18.5,0,25.6-2,25.9-2.1l1.1-0.3v-2.1c0-2.7-1.6-5.2-4-6.3l-0.2-0.1l-5.8-0.9l-0.2,0
		c-5.7,0.6-11.4,0.9-17.1,0.9c-6.6,0-12.5-0.2-17.5-0.7l-0.2,0L23.7,28l-0.2,0c-2.9,0.9-4.9,3.6-4.9,6.6v2.1l1.1,0.3
		C19.9,37.1,27.1,39.1,45.6,39.1z M24.2,30.9l3.4-0.5c4.9,0.5,10.5,0.7,16.9,0.7c6,0,12-0.3,18-0.9l5,0.8c1.2,0.7,2.1,1.9,2.1,3.3
		c-2.6,0.5-10,1.7-24,1.7c-14,0-21.4-1.2-24-1.7C21.6,32.8,22.7,31.4,24.2,30.9z"/>
	<rect x="105.5" y="57.7" class="st0" width="3" height="4"/>
	<rect x="105.5" y="49.7" class="st0" width="3" height="4"/>
	<rect x="105.5" y="73.7" class="st0" width="3" height="4"/>
	<rect x="105.5" y="65.7" class="st0" width="3" height="4"/>
	<rect x="105.5" y="83.7" class="st0" width="3" height="13"/>
	<path class="st0" d="M96.1,35.7c-1.2-0.1-15.2-0.8-19.3,11c-0.6,1.6-0.9,3.2-0.8,4.7v53.1c0,6.2,5.1,11.2,11.3,11.2
		c6.2,0,11.2-5.1,11.2-11.2V56.7c1.3-3.3,0.6-7.2-2.2-9.8c-1-0.9-2.2-1.6-3.5-2C89,43.8,85,46,83.8,49.9l2.9,0.9
		c0.7-2.3,3.1-3.6,5.3-2.9c0.8,0.3,1.6,0.7,2.3,1.3c2.4,2.2,2.5,5.8,0.3,8.2c-2.7,3.1-7.3,3.7-10.8,1.5c-3.4-2.2-6-6.5-4.2-11.1
		c1.5-4.2,4.6-7,9.4-8.3c3.7-1,7-0.7,7-0.7l21.6,0v68h-15v3h18v-74H96.1z M82.2,61.4c4.2,2.7,9.6,2.3,13.3-0.7v43.9
		c0,4.5-3.7,8.2-8.2,8.3c-4.5,0-8.2-3.7-8.3-8.2v-46C80,59.7,81,60.6,82.2,61.4z"/>
</g>
</svg>
