<?xml version="1.0" encoding="utf-8"?>
<!-- Generator: Adobe Illustrator 26.5.0, SVG Export Plug-In . SVG Version: 6.00 Build 0)  -->
<svg version="1.1" id="Icons" xmlns="http://www.w3.org/2000/svg" xmlns:xlink="http://www.w3.org/1999/xlink" x="0px" y="0px"
	 viewBox="0 0 60 60" style="enable-background:new 0 0 60 60;" xml:space="preserve">
<style type="text/css">
	.st0{fill:#FFFFFF;}
</style>
<path class="st0" d="M24,48c5.2,0,10.2-1.7,14.3-4.7l2.4,2.4c-0.4,0.9-0.1,2,0.6,2.7l10.2,10.2c2,2,5.1,2,7.1,0s2-5.1,0-7.1
	L48.4,41.3c-0.5-0.5-1.1-0.7-1.8-0.7l0,0c-0.3,0-0.6,0.1-0.9,0.2l-2.4-2.4c7.9-10.6,5.7-25.7-5-33.6s-25.7-5.7-33.6,5
	s-5.7,25.7,5,33.6C13.8,46.3,18.8,48,24,48z M46.6,42.5c0.1,0,0.3,0.1,0.3,0.2l10.2,10.2c1.2,1.2,1.2,3.1,0,4.2
	c-1.2,1.1-3.1,1.1-4.2,0L42.7,46.9c-0.1-0.1-0.1-0.2-0.1-0.3c0-0.1,0.1-0.3,0.2-0.3l3.5-3.5C46.3,42.6,46.5,42.5,46.6,42.5z
	 M44.1,42L42,44.1L39.9,42c0.8-0.7,1.5-1.4,2.1-2.1L44.1,42z M24,2c12.2,0,22,9.8,22,22s-9.8,22-22,22S2,36.2,2,24
	C2,11.9,11.9,2,24,2z"/>
<path class="st0" d="M22.2,43.9c0,0,0.1,0,0.1,0c0,0,0,0,0,0c0.6,0,1.1,0.1,1.7,0.1c11.1,0.1,20.2-8.9,20.2-20
	c0.1-11.1-8.9-20.2-20-20.2S4.1,12.7,4,23.8C3.9,34.2,11.8,42.9,22.2,43.9z M21,25.3c-0.7-1.3-1.4-2.5-2.3-3.6
	c-0.3-0.4-1-0.5-1.4-0.2c-0.4,0.3-0.5,1-0.2,1.4c1.2,1.7,2.3,3.5,3.1,5.3C20.1,29.1,20,30,20,31c0,1,0.1,2,0.2,2.9
	c-2.9-1.9-5.7-5.7-5.7-13.5c0-1.2-0.3-2.3-0.9-3.4c2.8,0.3,7,1.3,9.4,4.6C22.1,22.8,21.5,24,21,25.3z M22,31
	c0-4.4,1.7-11.8,13.1-12.9C34.4,19.2,34,20.6,34,22c0,12-6.1,15.6-9.6,16.7c1.2-4.2,3.3-9.9,6.4-14c0.3-0.4,0.2-1.1-0.2-1.4
	c-0.4-0.3-1.1-0.2-1.4,0.2c-2.8,4.1-5,8.7-6.4,13.5C22.3,35,22,33,22,31z M24,6c9.9,0,18,8.1,18,18s-8.1,18-18,18l0,0
	c-0.2,0-0.3,0-0.5,0c0.1-0.3,0.2-0.7,0.3-1.1C27.4,40.1,36,36.7,36,22c-0.1-1.2,0.4-2.4,1.2-3.3c0.6-0.6,0.6-1.7,0-2.3
	c-0.3-0.3-0.8-0.5-1.2-0.4c-5.5,0.3-9.2,2-11.5,4.2c-3.3-4.1-8.6-5-11.7-5.2c-0.9,0-1.6,0.6-1.6,1.5c0,0.4,0.1,0.9,0.4,1.2
	c0.7,0.8,1.1,1.8,1,2.8c0,10.4,5,14.5,8.2,16c0.3,1.2,0.7,2.5,1.3,3.6c-0.2,0.6-0.3,1.2-0.4,1.7C11.7,40.5,4.8,31.4,6.2,21.5
	C7.4,12.6,15,6,24,6z"/>
</svg>
