<?xml version="1.0" encoding="utf-8"?>
<!-- Generator: Adobe Illustrator 26.5.0, SVG Export Plug-In . SVG Version: 6.00 Build 0)  -->
<svg version="1.1"
	 id="svg2" xmlns:rdf="http://www.w3.org/1999/02/22-rdf-syntax-ns#" xmlns:sodipodi="http://sodipodi.sourceforge.net/DTD/sodipodi-0.dtd" xmlns:inkscape="http://www.inkscape.org/namespaces/inkscape" xmlns:svg="http://www.w3.org/2000/svg" xmlns:dc="http://purl.org/dc/elements/1.1/" xmlns:cc="http://creativecommons.org/ns#"
	 xmlns="http://www.w3.org/2000/svg" xmlns:xlink="http://www.w3.org/1999/xlink" x="0px" y="0px" viewBox="0 0 32 26.5"
	 style="enable-background:new 0 0 32 26.5;" xml:space="preserve">
<style type="text/css">
	.st0{fill:#FFFFFF;}
</style>
<g>
	<path class="st0" d="M14.5,16.5c-1.9,0-3.5,1.6-3.5,3.5s1.6,3.5,3.5,3.5c1.9,0,3.5-1.6,3.5-3.5C18,18.1,16.4,16.5,14.5,16.5z
		 M14.5,22.5c-1.4,0-2.5-1.1-2.5-2.5c0-1.4,1.1-2.5,2.5-2.5c1.4,0,2.5,1.1,2.5,2.5C17,21.4,15.9,22.5,14.5,22.5z"/>
	<path class="st0" d="M30.2,23c-1,0-1.8,0.8-1.8,1.8s0.8,1.8,1.8,1.8s1.8-0.8,1.8-1.8S31.2,23,30.2,23z M30.2,25.5
		c-0.4,0-0.8-0.3-0.8-0.8c0-0.4,0.3-0.8,0.8-0.8c0.4,0,0.8,0.3,0.8,0.8C31,25.2,30.7,25.5,30.2,25.5z"/>
	<path class="st0" d="M25.8,23c-1,0-1.8,0.8-1.8,1.8s0.8,1.8,1.8,1.8s1.8-0.8,1.8-1.8S26.7,23,25.8,23z M25.8,25.5
		c-0.4,0-0.8-0.3-0.8-0.8c0-0.4,0.3-0.8,0.8-0.8c0.4,0,0.8,0.3,0.8,0.8C26.5,25.2,26.2,25.5,25.8,25.5z"/>
	<path class="st0" d="M29.8,20.8c0-1-0.8-1.8-1.8-1.8s-1.8,0.8-1.8,1.8s0.8,1.8,1.8,1.8S29.8,21.7,29.8,20.8z M28,21.5
		c-0.4,0-0.8-0.3-0.8-0.8c0-0.4,0.3-0.8,0.8-0.8c0.4,0,0.8,0.3,0.8,0.8C28.8,21.2,28.4,21.5,28,21.5z"/>
	
		<rect x="6.7" y="0.1" transform="matrix(0.9783 -0.2072 0.2072 0.9783 -4.130727e-02 1.5109)" class="st0" width="1" height="1.7"/>
	<rect x="4.6" y="1.5" transform="matrix(0.5446 -0.8387 0.8387 0.5446 0.2791 5.3629)" class="st0" width="1" height="1.8"/>
	<rect x="8.8" y="0.9" transform="matrix(0.5443 -0.8389 0.8389 0.5443 3.2254 8.8123)" class="st0" width="1.8" height="1"/>
	<path class="st0" d="M30.2,12.9l0.1,0.7c0.1,0.3,0.3,0.4,0.6,0.4c0.3-0.1,0.4-0.3,0.4-0.6L29.1,3.1c0-0.2-0.3-0.4-0.5-0.4
		c-0.3,0-0.5,0.2-0.5,0.5c0,0,0,0.1,0,0.1L28.3,4c-1.4,0.1-5.2,0.5-9.2,1c-3,0.3-6.1,0.7-8.5,1L10.4,5c-0.1-0.5-0.7-0.9-1.2-0.8
		L8.4,4.4l-0.2-1l-1,0.2l0.2,1L6.7,4.8C6.2,4.9,5.8,5.4,6,6l0.2,0.8c-2.5,0.8-4.2,3-4.4,5.6c-0.7,0.1-1.4,0.6-1.6,1.3
		c-0.3,0.7-0.1,1.6,0.5,2.1c0.5,0.5,1.3,0.6,2,0.4c1.1,1.9,3.2,3.1,5.4,3.2c0,0.2,0,0.4,0,0.6c0,3.6,2.9,6.5,6.5,6.5
		c3.6,0,6.5-2.9,6.5-6.5c0-1.4-0.5-2.7-1.2-3.8C24.3,14.8,28.7,13.4,30.2,12.9z M9.4,5.2l0.2,0.9c-1,0.1-1.9,0.3-2.5,0.4L6.9,5.7
		L9.4,5.2z M1.3,15c-0.3-0.3-0.4-0.7-0.3-1.1c0.1-0.3,0.4-0.5,0.7-0.6c0,0.3,0.1,0.6,0.1,0.9c0.1,0.4,0.2,0.7,0.3,1
		C1.9,15.3,1.5,15.2,1.3,15z M2.8,14c-0.6-3,1.3-5.9,4.2-6.5c1.5-0.3,7.1-1,12.1-1.6c4.1-0.5,8-0.9,9.3-1l1.5,6.9
		c-1.4,0.5-6.1,2-10.9,3.5c-1.2-1.2-2.8-1.9-4.6-1.9c-3,0-5.6,2.1-6.3,4.9C5.7,18.4,3.4,16.6,2.8,14z M14.5,25.5
		C11.5,25.5,9,23,9,20s2.5-5.5,5.5-5.5c3,0,5.5,2.5,5.5,5.5S17.5,25.5,14.5,25.5z"/>
</g>
</svg>
