<?xml version="1.0" encoding="utf-8"?>
<!-- Generator: Adobe Illustrator 26.5.0, SVG Export Plug-In . SVG Version: 6.00 Build 0)  -->
<svg version="1.1" id="Layer_2" xmlns="http://www.w3.org/2000/svg" xmlns:xlink="http://www.w3.org/1999/xlink" x="0px" y="0px"
	 viewBox="0 0 507.7 358.7" style="enable-background:new 0 0 507.7 358.7;" xml:space="preserve">
<style type="text/css">
	.st0{fill:#FFFFFF;}
</style>
<g>
	<path class="st0" d="M367.7,349.3c-18.4,0-32.2-9.3-32.2-21.7s13.8-21.7,32.2-21.7s32.2,9.3,32.2,21.7S386,349.3,367.7,349.3z
		 M367.7,320.9c-10.7,0-17.2,4.7-17.2,6.7s6.5,6.7,17.2,6.7s17.2-4.7,17.2-6.7S378.4,320.9,367.7,320.9z"/>
	<ellipse class="st0" cx="430" cy="324.8" rx="13.9" ry="7.5"/>
	<ellipse class="st0" cx="475.8" cy="351.2" rx="13.9" ry="7.5"/>
	<ellipse class="st0" cx="461.9" cy="293" rx="13.9" ry="7.5"/>
	<ellipse class="st0" cx="280.4" cy="327.6" rx="13.9" ry="7.5"/>
	<circle class="st0" cx="421.4" cy="206.7" r="8.6"/>
	<circle class="st0" cx="386.8" cy="225.8" r="8.6"/>
	<circle class="st0" cx="386.8" cy="183.7" r="8.6"/>
	<circle class="st0" cx="60.6" cy="225.8" r="8.6"/>
	<circle class="st0" cx="91.2" cy="192.3" r="8.6"/>
	<circle class="st0" cx="99.8" cy="225.8" r="8.6"/>
	<circle class="st0" cx="351.6" cy="206.7" r="8.6"/>
	<circle class="st0" cx="317" cy="225.8" r="8.6"/>
	<circle class="st0" cx="351.6" cy="151.8" r="8.6"/>
	<circle class="st0" cx="325.6" cy="108.6" r="8.6"/>
	
		<ellipse transform="matrix(0.1602 -0.9871 0.9871 0.1602 -15.323 433.6584)" class="st0" cx="247.2" cy="225.8" rx="8.6" ry="8.6"/>
	<path class="st0" d="M257.8,300.5c-83.7,0-166.4-17.5-210.8-27l-2.1-0.5c-26.3-5.6-38.7-9.8-42.9-19.9c-3.5-8.3,1-17,4.7-22.8
		c11.3-17.6,73.7-85,76.4-87.9c0,0,0.1-0.1,0.1-0.1c12.3-12.8,31.8-14.9,46.5-5l17.5,11.8c3.4,2.3,4.3,7,2,10.4s-7,4.3-10.4,2
		l-17.5-11.8c-8.6-5.8-20.1-4.6-27.2,2.9c-22.2,23.9-66.2,72.5-74.7,85.7c-4.2,6.6-3.6,8.7-3.5,8.9c1.9,4.6,23.9,9.2,32.2,11
		l2.1,0.5c43.9,9.3,125.5,26.6,207.7,26.6c61.9,0,132.7-9.3,210.7-27.7c17.1-4,20.3-8.1,20.9-9.7c0.7-1.8-0.6-5.2-3.4-9.4
		C474.6,222.4,361.2,87.1,295.5,28.3c-19.8-17.7-49.6-17.7-69.4,0c-22,19.7-90.9,93.3-91.6,94c-2.8,3-7.6,3.2-10.6,0.4
		c-3-2.8-3.2-7.6-0.4-10.6c2.9-3,70.1-74.8,92.5-94.9c25.5-22.8,64-22.8,89.5,0C373.4,77.9,486.3,213,498.3,230.2
		c6.1,8.8,7.8,16.4,5.1,23.3c-4.3,11.2-19.1,16-31.5,18.9C392.9,291,320.8,300.5,257.8,300.5z"/>
</g>
</svg>
