<?xml version="1.0" encoding="utf-8"?>
<!-- Generator: Adobe Illustrator 26.5.0, SVG Export Plug-In . SVG Version: 6.00 Build 0)  -->
<svg version="1.1" id="Layer_1" xmlns="http://www.w3.org/2000/svg" xmlns:xlink="http://www.w3.org/1999/xlink" x="0px" y="0px"
	 viewBox="0 0 54 51.8" style="enable-background:new 0 0 54 51.8;" xml:space="preserve">
<style type="text/css">
	.st0{fill:#FFFFFF;}
</style>
<path class="st0" d="M53.4,28.5h-0.2c-0.1,0-0.1,0-0.2,0l-10.3,3c-0.2,0-0.3,0.1-0.4,0.3c-0.2,0.2-0.3,0.6-0.1,0.9l7.1,11.5
	c0.1,0.1,0.2,0.2,0.3,0.3l0,0c0.1,0.1,0.2,0.1,0.3,0.1c0.1,0,0.1,0,0.2,0l3.3-0.8c0.3-0.1,0.6-0.4,0.6-0.7V29.3
	C54,28.9,53.8,28.6,53.4,28.5z M50.4,43L44,32.7l8.5-2.5v12.2L50.4,43z"/>
<path class="st0" d="M54,19.9L54,19.9c0-0.1,0-0.1,0-0.2c0,0,0-0.1,0-0.1l-0.1-0.1c0,0,0-0.1-0.1-0.1l-0.1-0.1l-0.2-0.1l0,0
	C52.9,19,39,13.7,31,13.7c-6.6,0-9.9,2.3-13.5,4.7c-0.7,0.5-1.4,1-2.2,1.5c-0.5,0.3-1.2,0.7-2.1,1.1c-0.3,0.2-0.5,0.5-0.4,0.8l0,0
	c0,0.1,0,0.1,0,0.2v0l0,0l8.2,13.4l0,0c0.1,0.1,0.1,0.2,0.2,0.2h0.1c0.1,0.1,0.2,0.1,0.3,0.1l0,0c0.1,0,0.1,0,0.2,0l0,0l31.4-9.1
	l0,0l0.1-0.1l0.1-0.1l0.1-0.1c0,0,0.1-0.1,0.1-0.1c0,0,0-0.1,0-0.1c0.1,0,0.2-0.1,0.3-0.1l0,0V19.9z M16.1,21.1
	c0.8-0.5,1.5-1,2.2-1.5c3.4-2.3,6.6-4.5,12.6-4.5H31c6.9,0,18.9,4.3,21.4,5.3v5.1l-30.3,8.7L14.6,22C15.2,21.7,15.7,21.4,16.1,21.1z
	"/>
<path class="st0" d="M0,23.4L0,23.4L0,23.4c0,0.1,0.1,0.2,0.1,0.2l0.1,0.1l0.2,0.1h0.1c0.1,0,0.2,0.1,0.3,0.1c0.1,0,0.2,0,0.3,0
	c0.4-0.1,10-3.6,13.9-6.4c3.5-2.6,8.4-6.1,16.2-6.1s21.8,5.4,21.9,5.4h0.1h0.1l0,0c0.1,0,0.1,0,0.2,0h0.1l0.1-0.1l0.1-0.1
	c0,0,0-0.1,0.1-0.1c0,0,0.1-0.1,0.1-0.1l0,0c0,0,0-0.1,0-0.1c0,0,0-0.1,0-0.1V1c0-0.2-0.1-0.4-0.3-0.6c-0.2-0.1-0.4-0.2-0.6-0.2
	l-17.4,4H18.3c-0.4,0-0.8,0.3-0.8,0.8v8.9c-1.3,0.8-2.5,1.7-3.5,2.4c-1.4,1-3,1.8-4.6,2.5v-8.2c0.1-0.1,0.1-0.2,0.1-0.3
	c0.1-0.2,0.6-0.7,2-0.3c0.4,0.1,0.8-0.1,0.9-0.5c0.1-0.4-0.1-0.7-0.4-0.9c-0.6-0.2-1.3-0.3-2-0.2c0.8-1.8,2.2-4,3.5-4
	c0.4,0,0.8-0.3,0.8-0.8S13.8,3,13.4,3c-2.2,0-3.9,2.8-4.7,4.7C7.7,5.8,6.1,3,3.9,3C3.5,3,3.1,3.4,3.1,3.8s0.3,0.8,0.8,0.8
	c1.3,0,2.6,2.1,3.5,4c-0.7-0.1-1.4,0-2,0.2C4.9,8.8,4.7,9.2,4.8,9.6s0.5,0.6,0.9,0.5c0,0,0.1,0,0.1,0c1.4-0.5,1.9,0.1,2,0.3
	c0,0.1,0.1,0.2,0.1,0.3v8.8c-2.5,1.1-5,2.1-6.4,2.6V9c0-0.4-0.3-0.8-0.8-0.8C0.4,8.3,0,8.6,0,9l0,0v14.2C0,23.3,0,23.4,0,23.4
	L0,23.4z M45.4,9.6L45.4,9.6C45.4,9.6,45.4,9.6,45.4,9.6C45.4,9.6,45.4,9.6,45.4,9.6z M19,5.7h16.9l16.6-3.8V15
	c-1.1-0.4-3.1-1.1-5.6-1.9v-3l0,0c0.5-0.2,1.1-0.3,1.7-0.1c0.4,0.1,0.8-0.2,0.9-0.6c0,0,0,0,0,0c0.1-0.4-0.2-0.8-0.6-0.9
	c0,0,0,0,0,0c-0.4-0.1-0.7-0.1-1.1-0.1c0.6-0.8,1.4-1.3,2.4-1.4c0.4,0,0.8-0.3,0.8-0.8s-0.3-0.8-0.8-0.8c-1.8,0-3.2,1.5-4,2.6
	c-0.8-1.1-2.2-2.6-4-2.6c-0.4,0-0.8,0.3-0.8,0.8S41.8,7,42.2,7c1,0.1,1.8,0.7,2.4,1.4c-0.4,0-0.8,0-1.1,0.1
	c-0.4,0.1-0.7,0.5-0.6,0.9c0.1,0.4,0.5,0.7,0.9,0.6c0,0,0,0,0,0c0.5-0.2,1.1-0.1,1.7,0.1l0,0v2.5C40.8,11.3,35.1,9.9,31,9.9
	c-4.2,0-8.3,1-12,3.1V5.7z"/>
<path class="st0" d="M25.7,47L25.7,47c0,0,0-0.1,0-0.1l0-0.2l-5-8.1c0,0,0-0.1-0.1-0.1c0,0-0.1-0.1-0.1-0.1l-0.1-0.1
	c0,0-0.1-0.1-0.1-0.1c0,0-0.1,0-0.1,0h-0.2h-0.1h-0.1L0.4,48C0.1,48.2,0,48.5,0,48.8l0,0V51c0,0.2,0.1,0.4,0.3,0.6
	c0.1,0.1,0.3,0.2,0.5,0.2h0.1l24.2-4l0,0l0.2-0.1l0,0c0.1-0.1,0.2-0.1,0.2-0.2c0,0,0-0.1,0-0.1c0,0,0.1-0.1,0.1-0.2
	C25.7,47.1,25.7,47.1,25.7,47z M1.5,49.2L19.8,40l4,6.5L1.5,50.2V49.2z"/>
<path class="st0" d="M0,45.2c0,0,0,0.1,0,0.1l0,0l0,0c0.1,0.1,0.1,0.2,0.2,0.2h0.1c0.1,0.1,0.2,0.1,0.3,0.1l0,0c0.1,0,0.2,0.1,0.4,0
	l0,0l17.5-8.9l0,0l0,0c0,0,0.1,0,0.1-0.1c0,0,0.1-0.1,0.1-0.1c0,0,0-0.1,0.1-0.1c0,0,0-0.1,0-0.1c0,0,0-0.1,0-0.1c0,0,0-0.1,0-0.2
	s0-0.1,0-0.1s0-0.1,0-0.1s0,0,0,0l0,0l-8-12.9c0,0-0.1,0-0.1-0.1c0,0-0.1-0.1-0.1-0.1l-0.1-0.1c0,0-0.1,0-0.1-0.1c0,0-0.1,0-0.1,0
	c-0.1,0-0.1,0-0.2,0H10c0,0-0.1,0-0.1,0c-4.4,1.9-9.5,3.8-9.5,3.8C0.2,26.5,0,26.8,0,27c0,0,0,0,0,0.1v18C0,45.2,0,45.2,0,45.2z
	 M10,24.1l7.2,11.7l-15.7,8V27.5C2.8,27,6.5,25.6,10,24.1z"/>
<path class="st0" d="M23.2,30.5c0.1,0.2,0.4,0.4,0.6,0.4c0.1,0,0.1,0,0.2,0l5.8-1.6c0.2-0.1,0.4-0.2,0.5-0.5
	c0.1-0.2,0.1-0.5-0.1-0.7l-2.1-3c-0.2-0.3-0.5-0.4-0.8-0.3l-5.7,1.5c-0.2,0.1-0.4,0.2-0.5,0.5c-0.1,0.2-0.1,0.5,0.1,0.7L23.2,30.5z
	 M27.2,26.3l1.2,1.7l-4.2,1.2L23,27.4L27.2,26.3z"/>
<path class="st0" d="M39.3,41.9c0.1-0.2,0-0.5-0.1-0.7l-2.1-3c-0.2-0.3-0.5-0.4-0.8-0.3l-5.6,1.5c-0.4,0.1-0.6,0.5-0.5,0.9
	c0,0.1,0,0.1,0.1,0.2l2,3.1c0.1,0.2,0.4,0.4,0.6,0.4h0.2l5.7-1.6C39.1,42.3,39.2,42.1,39.3,41.9z M33.2,42.4l-1.1-1.8l4.1-1.1
	l1.2,1.7L33.2,42.4z"/>
<path class="st0" d="M30.9,24c-0.1,0.2-0.1,0.5,0.1,0.7l2,3.1c0.1,0.2,0.4,0.4,0.6,0.3c0.1,0,0.1,0,0.2,0l5.8-1.6
	c0.2-0.1,0.4-0.2,0.5-0.5c0.1-0.2,0.1-0.5-0.1-0.7l-2.1-3c-0.2-0.3-0.5-0.4-0.8-0.3l-5.7,1.5C31.2,23.6,31,23.8,30.9,24z M36.9,23.6
	l1.2,1.7l-4.2,1.2l-1.1-1.8L36.9,23.6z"/>
<path class="st0" d="M42.3,25.2c0.1,0.2,0.4,0.3,0.6,0.4h0.2l5.8-1.6c0.2-0.1,0.4-0.2,0.5-0.5c0.1-0.2,0-0.5-0.1-0.7l-2.1-3
	c-0.2-0.3-0.5-0.4-0.8-0.3l-5.7,1.5c-0.2,0.1-0.4,0.2-0.5,0.5c-0.1,0.2-0.1,0.5,0.1,0.7L42.3,25.2z M46.3,21l1.2,1.7l-4.2,1.1
	l-1.1-1.8L46.3,21z"/>
<path class="st0" d="M47.3,44.5L47.3,44.5C47.3,44.4,47.3,44.4,47.3,44.5c0-0.1,0-0.2,0-0.2l-7-11.2c0-0.1-0.1-0.1-0.2-0.2
	c-0.2-0.3-0.5-0.4-0.8-0.3l-15.9,4.6c0,0-0.1,0-0.1,0h-0.1l0,0c0,0-0.1,0.1-0.1,0.1c0,0-0.1,0.1-0.1,0.1c0,0,0,0.1-0.1,0.1
	c0,0,0,0.1,0,0.1v0.1c0,0.1,0,0.1,0,0.2l0,0c0,0,0,0.1,0.1,0.1c0,0,0,0,0,0.1l5.6,9.1c0.1,0.2,0.4,0.4,0.6,0.4c0.1,0,0.3,0,0.4-0.1
	c0.3-0.2,0.4-0.7,0.2-1l-5.1-8.3L39.2,34l6.1,10l-9.8,2.2c-0.4,0.1-0.7,0.5-0.6,0.9c0,0,0,0,0,0c0.1,0.3,0.4,0.6,0.7,0.6h0.2
	l10.8-2.4l0,0c0.1,0,0.1-0.1,0.2-0.1l0,0c0,0,0.1-0.1,0.1-0.1c0,0,0.1-0.1,0.1-0.1c0,0,0-0.1,0.1-0.1c0,0,0-0.1,0-0.1
	c0,0,0-0.1,0-0.1C47.2,44.6,47.3,44.5,47.3,44.5z"/>
<path class="st0" d="M4.6,37.5c0,0.4,0.3,0.7,0.7,0.7c0,0,0,0,0,0c0.1,0,0.2,0,0.4-0.1l6.4-3.5c0.2-0.1,0.3-0.3,0.4-0.5
	c0.1-0.2,0-0.4-0.1-0.6l-2.8-4.7c-0.2-0.4-0.6-0.5-1-0.3L5,30.4c-0.3,0.1-0.4,0.4-0.4,0.7L4.6,37.5z M8.7,30.2l2.1,3.4l-4.7,2.6
	v-4.7L8.7,30.2z"/>
<path class="st0" d="M25.6,22.8c0.1,0.2,0.4,0.3,0.6,0.4c0.1,0,0.1,0,0.2,0l5.8-1.6c0.2-0.1,0.4-0.2,0.5-0.5c0.1-0.2,0-0.5-0.1-0.7
	l-2-3c-0.2-0.3-0.5-0.4-0.8-0.3L24,18.5c-0.2,0.1-0.4,0.2-0.5,0.5c-0.1,0.2-0.1,0.5,0.1,0.7L25.6,22.8z M29.6,18.6l1.2,1.7l-4.2,1.1
	l-1.1-1.8L29.6,18.6z"/>
</svg>
