<?xml version="1.0" encoding="utf-8"?>
<!-- Generator: Adobe Illustrator 26.5.0, SVG Export Plug-In . SVG Version: 6.00 Build 0)  -->
<svg version="1.1" id="Layer_1" xmlns="http://www.w3.org/2000/svg" xmlns:xlink="http://www.w3.org/1999/xlink" x="0px" y="0px"
	 viewBox="0 0 64 64" style="enable-background:new 0 0 64 64;" xml:space="preserve">
<style type="text/css">
	.st0{fill:#FFFFFF;}
</style>
<g>
	<path class="st0" d="M39.2,29.9c0.7-1.8,0.4-3.6-0.6-4c-1-0.4-2.4,0.8-3.1,2.6c-0.7,1.8-0.4,3.6,0.6,4
		C37.2,32.8,38.6,31.7,39.2,29.9z"/>
	<path class="st0" d="M32.8,22.8c1.6-0.7,2.7-2.1,2.2-3c-0.4-0.9-2.1-1.1-3.7-0.4s-2.7,2.1-2.2,3S31.2,23.5,32.8,22.8z"/>
	<path class="st0" d="M38.8,17.9c1-0.4,1.3-2.2,0.6-4c-0.7-1.8-2.1-2.9-3.1-2.5c-1,0.4-1.3,2.2-0.6,4S37.7,18.3,38.8,17.9z"/>
	<path class="st0" d="M32,0C14.3,0,0,14.3,0,32s14.3,32,32,32s32-14.3,32-32S49.7,0,32,0z M53,22c3.3,0,6,2.7,6,6s-2.7,6-6,6
		s-6-2.7-6-6S49.7,22,53,22z M53.2,20L37.4,7.7l1.2-1.5l17.9,13.9l-0.4,0.5C55.2,20.3,54.2,20,53.2,20z M58.4,17.7l-0.6,0.8
		L39.8,4.6l0.7-0.9c0,0,0.1-0.1,0.1-0.1c0.1-0.1,0.1-0.2,0.1-0.3C48.3,5.6,54.7,10.9,58.4,17.7z M32,62c-11.2,0-20.9-6.1-26.1-15.2
		l1.5,1C7.6,47.9,7.8,48,8,48c0.3,0,0.6-0.2,0.8-0.4c0.3-0.5,0.2-1.1-0.3-1.4l-3-2c0,0-0.1-0.1-0.2-0.1c-0.3-0.2-0.6-0.1-0.9,0
		C2.9,40.4,2,36.3,2,32C2,15.4,15.4,2,32,2c2.3,0,4.6,0.3,6.7,0.8l-4.2,5.4l10.1,7.8c-0.6,0.2-1.3,0.7-1.9,1.4
		c-1.3,1.4-1.7,3.2-0.9,3.9s2.5,0.2,3.8-1.2c0.7-0.7,1.1-1.6,1.3-2.3l3.5,2.7C47.3,21.5,45,24.5,45,28c0,4.4,3.6,8,8,8s8-3.6,8-8
		c0-2.6-1.2-4.9-3.1-6.3l1.5-1.9C61.1,23.5,62,27.6,62,32c0,4.3-0.9,8.5-2.6,12.2c-0.3-0.2-0.6-0.2-1,0l-3,2
		C55.2,46.4,55,46.7,55,47c0,0.6,0.4,1,1,1c0.2,0,0.4-0.1,0.5-0.2l1.5-1C52.9,55.9,43.2,62,32,62z"/>
	<path class="st0" d="M14.5,44.2c-0.3-0.2-0.8-0.2-1.1,0l-3,2c-0.1,0-0.1,0.1-0.2,0.1c-0.4,0.3-0.5,1-0.2,1.4s1,0.5,1.4,0.2l2.5-1.6
		l2.5,1.6c0.2,0.1,0.4,0.2,0.5,0.2c0.3,0,0.6-0.2,0.8-0.4c0.3-0.5,0.2-1.1-0.3-1.4L14.5,44.2z"/>
	<path class="st0" d="M23.5,44.2c-0.3-0.2-0.8-0.2-1.1,0l-2,1.3c-1-2.4-3.1-8.9-0.1-14c0,0,0,0,0-0.1c0.3-0.5,0.1-1.1-0.4-1.3
		c-0.5-0.3-1.1-0.1-1.3,0.4c-4.2,7.4,0.3,16.6,0.5,17c0.2,0.3,0.5,0.5,0.9,0.5c0.1,0,0.2,0,0.2-0.1c0.1,0,0.2,0,0.3-0.1l2.5-1.6
		l2.5,1.6c0.2,0.1,0.4,0.2,0.5,0.2c0.3,0,0.6-0.2,0.8-0.4c0.3-0.5,0.2-1.1-0.3-1.4L23.5,44.2z"/>
	<path class="st0" d="M32.5,44.2c-0.3-0.2-0.8-0.2-1.1,0l-3,2c-0.4,0.3-0.5,0.8-0.3,1.3c0.3,0.5,0.9,0.7,1.4,0.4l2.5-1.6l2.5,1.6
		c0.2,0.1,0.4,0.2,0.5,0.2c0.3,0,0.6-0.2,0.8-0.4c0.3-0.5,0.2-1.1-0.3-1.4L32.5,44.2z"/>
	<path class="st0" d="M41.5,44.2c-0.3-0.2-0.8-0.2-1.1,0l-3,2c-0.1,0-0.1,0.1-0.2,0.1c-0.4,0.3-0.5,1-0.2,1.4s1,0.5,1.4,0.2l2.5-1.6
		l2.5,1.6c0.2,0.1,0.4,0.2,0.5,0.2c0.3,0,0.6-0.2,0.8-0.4c0.3-0.5,0.2-1.1-0.3-1.4L41.5,44.2z"/>
	<path class="st0" d="M50.5,44.2c-0.3-0.2-0.8-0.2-1.1,0l-3,2c-0.1,0-0.1,0.1-0.2,0.1c-0.4,0.3-0.5,1-0.2,1.4s1,0.5,1.4,0.2l2.5-1.6
		l2.5,1.6c0.2,0.1,0.4,0.2,0.5,0.2c0.3,0,0.6-0.2,0.8-0.4c0.3-0.5,0.2-1.1-0.3-1.4L50.5,44.2z"/>
	<path class="st0" d="M20.8,35.2c1.5,0.7,3.1,1.1,4.8,1.2c0.9,0,1.8-0.2,2.7-0.5c3.3-1.4,5.4-6.5,5.5-6.7c0.1-0.3,0.1-0.7-0.1-1
		c-0.2-0.3-0.6-0.4-0.9-0.4c-1,0.1-2.1,0.1-3.2-0.1c-1.5-0.3-3.1-0.2-4.6,0.5c-3.4,1.4-4.7,5.7-4.7,5.8
		C20.2,34.4,20.4,34.9,20.8,35.2z M25.8,30c1.1-0.5,2.3-0.6,3.5-0.3c0.6,0.1,1.3,0.2,1.9,0.2c-0.8,1.5-2.2,3.5-3.7,4.1
		c-1.6,0.5-3.4,0.4-4.9-0.2C23.2,32.1,24.3,30.8,25.8,30z"/>
	<path class="st0" d="M19.4,29.6c0.1,0.1,0.3,0.1,0.4,0.1c0.3,0,0.7-0.1,0.9-0.4c0.1-0.1,2.1-2.9,1.3-5.7s-3.9-4.2-4-4.3
		c-0.4-0.2-1-0.1-1.3,0.3c-0.1,0.1-2.1,2.9-1.4,5.7S19.2,29.5,19.4,29.6z M17.9,21.5c1,0.6,1.7,1.5,2.1,2.5c0.2,1.1,0,2.3-0.6,3.2
		c-1-0.6-1.7-1.5-2.1-2.5C17.2,23.7,17.4,22.5,17.9,21.5z"/>
	<path class="st0" d="M13.2,37.6c0.6,0,1.2-0.1,1.8-0.2c0.4-0.1,0.8-0.5,0.7-1c0-0.1-0.2-2.9-2.2-4.3s-4.7-0.6-4.8-0.6
		C8.3,31.6,8,32,8,32.5c0,0.1,0.2,2.9,2.2,4.3C11.1,37.4,12.1,37.7,13.2,37.6z M12.5,33.7c0.6,0.5,1,1.2,1.1,1.9
		c-0.8,0.1-1.5-0.1-2.2-0.5c-0.6-0.5-1-1.2-1.1-1.9C11,33.1,11.8,33.3,12.5,33.7z"/>
	<path class="st0" d="M50.5,31.5c0.6,0,1-0.4,1-1v-2.6l3.3,3.3c0.2,0.2,0.4,0.3,0.7,0.3c0.1,0,0.3,0,0.4-0.1
		c0.4-0.2,0.6-0.5,0.6-0.9v-5c0-0.6-0.4-1-1-1s-1,0.4-1,1v2.6l-3.3-3.3c-0.3-0.3-0.7-0.4-1.1-0.2c-0.4,0.2-0.6,0.5-0.6,0.9v5
		C49.5,31.1,49.9,31.5,50.5,31.5z"/>
</g>
</svg>
